<svg width="157" height="26" viewBox="0 0 157 26" fill="none" xmlns="http://www.w3.org/2000/svg">
<path d="M4.29332 20H0.637074L7.29403 1.09091H11.5227L18.1889 20H14.5327L9.48224 4.96875H9.33452L4.29332 20ZM4.41335 12.5859H14.3849V15.3374H4.41335V12.5859ZM20.6795 20V1.09091H24.1049V17.1286H32.4331V20H20.6795ZM35.4061 1.09091H39.5978L45.2115 14.7926H45.4331L51.0467 1.09091H55.2385V20H51.9515V7.00923H51.7761L46.5502 19.9446H44.0943L38.8684 6.98153H38.693V20H35.4061V1.09091Z" fill="#FCAB60"/>
<path d="M75.6941 6.28906C75.6079 5.48272 75.2447 4.85488 74.6046 4.40554C73.9706 3.9562 73.1458 3.73153 72.1301 3.73153C71.4161 3.73153 70.8037 3.83925 70.2928 4.05469C69.7819 4.27012 69.391 4.5625 69.1202 4.93182C68.8494 5.30114 68.7109 5.72277 68.7047 6.19673C68.7047 6.59067 68.794 6.93229 68.9725 7.22159C69.1571 7.51089 69.4064 7.7571 69.7203 7.96023C70.0343 8.1572 70.382 8.32339 70.7637 8.45881C71.1453 8.59422 71.53 8.7081 71.9178 8.80043L73.6905 9.24361C74.4045 9.4098 75.0909 9.63447 75.7495 9.91761C76.4142 10.2008 77.0082 10.5578 77.5314 10.9886C78.0608 11.4195 78.4793 11.9396 78.7871 12.549C79.0949 13.1584 79.2488 13.8724 79.2488 14.6911C79.2488 15.799 78.9656 16.7746 78.3993 17.6179C77.833 18.455 77.0144 19.1106 75.9434 19.5845C74.8785 20.0523 73.589 20.2862 72.0748 20.2862C70.6036 20.2862 69.3264 20.0585 68.2431 19.603C67.1659 19.1475 66.3226 18.4827 65.7132 17.6087C65.11 16.7346 64.7838 15.6697 64.7346 14.4141H68.1046C68.1538 15.0727 68.3569 15.6205 68.714 16.0575C69.071 16.4946 69.5357 16.8208 70.1081 17.0362C70.6867 17.2517 71.333 17.3594 72.0471 17.3594C72.7918 17.3594 73.4443 17.2486 74.0044 17.027C74.5707 16.7992 75.0139 16.4853 75.334 16.0852C75.6541 15.679 75.8172 15.205 75.8233 14.6634C75.8172 14.1709 75.6725 13.7647 75.3894 13.4446C75.1062 13.1184 74.7092 12.8475 74.1983 12.6321C73.6936 12.4105 73.1027 12.2135 72.4256 12.0412L70.2743 11.4872C68.717 11.0871 67.486 10.4808 66.5811 9.66832C65.6825 8.84967 65.2331 7.76326 65.2331 6.40909C65.2331 5.29498 65.5347 4.31936 66.138 3.48224C66.7473 2.64512 67.5752 1.99574 68.6216 1.53409C69.668 1.06629 70.8529 0.832386 72.1763 0.832386C73.5182 0.832386 74.6938 1.06629 75.7033 1.53409C76.7189 1.99574 77.516 2.63897 78.0946 3.46378C78.6732 4.28243 78.9718 5.22419 78.9902 6.28906H75.6941ZM84.2322 25.3182C83.7768 25.3182 83.3551 25.2813 82.9673 25.2074C82.5857 25.1397 82.281 25.0597 82.0533 24.9673L82.8288 22.3636C83.3151 22.5052 83.7491 22.5729 84.1307 22.5668C84.5123 22.5606 84.8478 22.4406 85.1371 22.2067C85.4325 21.9789 85.6818 21.5973 85.8849 21.0618L86.1712 20.2955L81.0284 5.81818H84.5739L87.8423 16.5284H87.9901L91.2678 5.81818H94.8224L89.1442 21.7173C88.8795 22.4683 88.5286 23.1115 88.0916 23.647C87.6546 24.1887 87.1191 24.6011 86.4851 24.8842C85.8572 25.1735 85.1063 25.3182 84.2322 25.3182ZM108.344 9.56676L105.297 9.89915C105.211 9.59138 105.06 9.30208 104.845 9.03125C104.636 8.76042 104.352 8.5419 103.995 8.37571C103.638 8.20952 103.201 8.12642 102.684 8.12642C101.989 8.12642 101.404 8.27722 100.93 8.57883C100.462 8.88044 100.231 9.27131 100.238 9.75142C100.231 10.1638 100.382 10.4993 100.69 10.7578C101.004 11.0163 101.521 11.2287 102.241 11.3949L104.66 11.9119C106.002 12.2012 106.999 12.6598 107.652 13.2876C108.31 13.9155 108.643 14.7372 108.649 15.7528C108.643 16.6454 108.381 17.4332 107.864 18.1165C107.353 18.7936 106.642 19.3229 105.731 19.7045C104.82 20.0862 103.774 20.277 102.592 20.277C100.856 20.277 99.4589 19.9138 98.4002 19.1875C97.3415 18.455 96.7106 17.4363 96.5075 16.1314L99.7667 15.8175C99.9144 16.4576 100.228 16.9408 100.708 17.267C101.189 17.5933 101.813 17.7564 102.583 17.7564C103.377 17.7564 104.014 17.5933 104.494 17.267C104.98 16.9408 105.223 16.5376 105.223 16.0575C105.223 15.6513 105.066 15.3158 104.752 15.0511C104.445 14.7865 103.965 14.5833 103.312 14.4418L100.893 13.9339C99.5328 13.6508 98.5264 13.1738 97.8739 12.5028C97.2215 11.8258 96.8983 10.9702 96.9045 9.93608C96.8983 9.06203 97.1353 8.30492 97.6154 7.66477C98.1017 7.01847 98.7757 6.51989 99.6374 6.16903C100.505 5.81203 101.506 5.63352 102.638 5.63352C104.3 5.63352 105.608 5.98745 106.562 6.69531C107.522 7.40317 108.116 8.36032 108.344 9.56676ZM118.487 5.81818V8.40341H110.334V5.81818H118.487ZM112.347 2.42045H115.689V15.7344C115.689 16.1837 115.757 16.5284 115.892 16.7685C116.034 17.0024 116.218 17.1624 116.446 17.2486C116.674 17.3348 116.926 17.3778 117.203 17.3778C117.412 17.3778 117.603 17.3625 117.776 17.3317C117.954 17.3009 118.089 17.2732 118.182 17.2486L118.745 19.8615C118.567 19.9231 118.311 19.9908 117.979 20.0646C117.652 20.1385 117.252 20.1816 116.778 20.1939C115.941 20.2185 115.187 20.0923 114.516 19.8153C113.845 19.5322 113.313 19.0952 112.919 18.5043C112.531 17.9134 112.34 17.1747 112.347 16.2884V2.42045ZM127.408 20.277C125.986 20.277 124.758 19.9815 123.724 19.3906C122.696 18.7936 121.905 17.9503 121.351 16.8608C120.797 15.7652 120.52 14.4756 120.52 12.9922C120.52 11.5334 120.797 10.2531 121.351 9.15128C121.911 8.04332 122.693 7.18158 123.696 6.56605C124.7 5.94437 125.878 5.63352 127.232 5.63352C128.106 5.63352 128.931 5.77509 129.707 6.05824C130.489 6.33523 131.178 6.7661 131.775 7.35085C132.378 7.93561 132.852 8.6804 133.197 9.58523C133.542 10.4839 133.714 11.5549 133.714 12.7983V13.8232H122.09V11.5703H130.51C130.504 10.9302 130.365 10.3608 130.095 9.86222C129.824 9.35748 129.445 8.96046 128.959 8.67116C128.479 8.38187 127.919 8.23722 127.279 8.23722C126.595 8.23722 125.995 8.40341 125.478 8.73579C124.961 9.06203 124.558 9.4929 124.269 10.0284C123.985 10.5578 123.841 11.1394 123.835 11.7734V13.7401C123.835 14.5649 123.985 15.2727 124.287 15.8636C124.589 16.4484 125.01 16.8977 125.552 17.2116C126.094 17.5194 126.728 17.6733 127.454 17.6733C127.94 17.6733 128.38 17.6056 128.774 17.4702C129.168 17.3286 129.51 17.1224 129.799 16.8516C130.088 16.5807 130.307 16.2453 130.455 15.8452L133.575 16.196C133.378 17.0208 133.003 17.741 132.449 18.3565C131.901 18.9659 131.2 19.4399 130.344 19.7784C129.488 20.1108 128.51 20.277 127.408 20.277ZM136.542 20V5.81818H139.736V8.22798H139.902C140.198 7.41548 140.687 6.78149 141.37 6.32599C142.054 5.86435 142.869 5.63352 143.817 5.63352C144.777 5.63352 145.587 5.86742 146.245 6.33523C146.91 6.79687 147.378 7.42779 147.649 8.22798H147.797C148.11 7.4401 148.64 6.81226 149.385 6.34446C150.136 5.8705 151.025 5.63352 152.053 5.63352C153.358 5.63352 154.423 6.04593 155.248 6.87074C156.072 7.69555 156.485 8.89891 156.485 10.4808V20H153.133V10.9979C153.133 10.1177 152.899 9.47443 152.431 9.06818C151.964 8.65578 151.391 8.44957 150.714 8.44957C149.908 8.44957 149.277 8.70194 148.821 9.20668C148.372 9.70526 148.147 10.3546 148.147 11.1548V20H144.87V10.8594C144.87 10.1269 144.648 9.54214 144.205 9.10511C143.768 8.66809 143.195 8.44957 142.488 8.44957C142.007 8.44957 141.57 8.57268 141.176 8.81889C140.783 9.05895 140.469 9.40057 140.235 9.84375C140.001 10.2808 139.884 10.7917 139.884 11.3764V20H136.542Z" fill="#F2F2F2"/>
</svg>
