<svg width="51" height="53" viewBox="0 0 51 53" fill="none" xmlns="http://www.w3.org/2000/svg">
<g clip-path="url(#clip0_282_535)">
<path fill-rule="evenodd" clip-rule="evenodd" d="M41.6437 1.73024V8.27523H37.1054V1.73024H34.5908C34.3661 1.73024 34.1507 1.63909 33.9918 1.47685C33.8329 1.31461 33.7437 1.09456 33.7437 0.865118C33.7437 0.635674 33.8329 0.415628 33.9918 0.253387C34.1507 0.091146 34.3661 0 34.5908 0H44.1583C44.3081 0.000247755 44.4552 0.0410764 44.5846 0.118322C44.7139 0.195567 44.8209 0.306465 44.8946 0.439704L47.4027 4.3102C47.5265 4.50116 47.5709 4.7345 47.5262 4.9589C47.4815 5.1833 47.3513 5.38036 47.1643 5.50674C46.9773 5.63313 46.7488 5.67848 46.529 5.63281C46.3093 5.58715 46.1163 5.45422 45.9926 5.26326L43.7051 1.73024H41.6437Z" fill="#7FA842"/>
<path fill-rule="evenodd" clip-rule="evenodd" d="M14.9087 8.86556H1.59518C1.37634 8.86451 1.15966 8.90968 0.958725 8.99821C0.757793 9.08675 0.576953 9.21675 0.427557 9.38004C0.278161 9.54334 0.163433 9.73641 0.0905766 9.94714C0.01772 10.1579 -0.0116928 10.3817 0.00418462 10.6046L2.07958 41.8818C2.09548 42.1281 2.19326 42.3613 2.35672 42.5431C2.52018 42.7248 2.73952 42.844 2.97841 42.8811H13.59C13.8293 42.8439 14.0489 42.7244 14.2124 42.5422C14.3759 42.36 14.4734 42.1262 14.4889 41.8796L16.5008 10.6035C16.5163 10.3806 16.4867 10.1569 16.4136 9.9463C16.3406 9.7357 16.2257 9.54278 16.0762 9.37962C15.9268 9.21646 15.7459 9.08659 15.545 8.99813C15.3441 8.90967 15.1275 8.86454 14.9087 8.86556ZM8.25194 34.6014C6.52962 34.6014 5.13023 30.6958 5.13023 25.8788C5.13023 21.0618 6.52962 17.1562 8.25732 17.1562C9.98502 17.1562 11.3844 21.0618 11.3844 25.8788C11.3844 30.6958 9.97964 34.6014 8.25194 34.6014ZM13.1842 12.9889H3.31965C3.09496 12.9889 2.87949 12.8977 2.72061 12.7355C2.56174 12.5733 2.47248 12.3532 2.47248 12.1238C2.47248 11.8943 2.56174 11.6743 2.72061 11.512C2.87949 11.3498 3.09496 11.2586 3.31965 11.2586H13.1842C13.4089 11.2586 13.6244 11.3498 13.7833 11.512C13.9421 11.6743 14.0314 11.8943 14.0314 12.1238C14.0314 12.3532 13.9421 12.5733 13.7833 12.7355C13.6244 12.8977 13.4089 12.9889 13.1842 12.9889Z" fill="#14303B"/>
<path d="M27.8015 28.1565H19.4924C18.6512 28.1565 17.9692 28.8529 17.9692 29.7119V31.7379C17.9692 32.5969 18.6512 33.2933 19.4924 33.2933H27.8015C28.6427 33.2933 29.3247 32.5969 29.3247 31.7379V29.7119C29.3247 28.8529 28.6427 28.1565 27.8015 28.1565Z" fill="#14303B"/>
<path fill-rule="evenodd" clip-rule="evenodd" d="M23.594 19.3921C24.8857 19.3921 25.9342 20.322 25.9342 21.6719V26.4262H21.3604V21.6719C21.3618 21.0675 21.5976 20.4883 22.0162 20.061C22.4348 19.6338 23.0021 19.3932 23.594 19.3921Z" fill="#14303B"/>
<path fill-rule="evenodd" clip-rule="evenodd" d="M28.3019 34.9828C29.5108 35.8776 30.387 36.8571 30.387 38.7269V50.0163C30.3847 50.7445 30.1005 51.4421 29.5963 51.957C29.0921 52.4719 28.4089 52.7622 27.6959 52.7645H19.5988C18.8858 52.7622 18.2026 52.4719 17.6984 51.957C17.1942 51.4421 16.91 50.7445 16.9077 50.0163V38.7269C16.9077 36.8582 17.7839 35.8776 18.9928 34.9828C19.1583 35.0098 19.3257 35.0234 19.4933 35.0235H27.8025C27.9697 35.0233 28.1367 35.0097 28.3019 34.9828Z" fill="#14303B"/>
<path fill-rule="evenodd" clip-rule="evenodd" d="M48.3433 19.5954H30.4022C29.3569 19.5954 28.4839 20.333 28.3074 21.2993H46.7147C46.9393 21.2993 47.1548 21.3904 47.3137 21.5526C47.4726 21.7149 47.5618 21.9349 47.5618 22.1644C47.5618 22.3938 47.4726 22.6139 47.3137 22.7761C47.1548 22.9383 46.9393 23.0295 46.7147 23.0295H28.2783V26.4625C29.0393 26.5817 29.7335 26.9747 30.2358 27.5704C30.7381 28.1662 31.0155 28.9257 31.0179 29.7119V31.7389C31.0178 32.1896 30.9265 32.6353 30.7498 33.0483C30.5731 33.4612 30.3147 33.8324 29.991 34.1386C31.371 35.3566 32.0814 36.7977 32.0814 38.7269V45.1906H50.4704V21.6554C50.4704 20.5221 49.5145 19.5954 48.3433 19.5954ZM43.087 36.1393C42.9643 38.5412 41.2022 40.3692 39.1526 40.2219C37.1031 40.0746 35.5411 38.0091 35.6638 35.605C35.75 33.9407 37.0019 32.3479 37.8576 31.0596C38.5261 30.0538 39.2301 28.9864 39.7619 28.3345C40.1806 28.9941 40.7059 29.9922 41.2172 30.9903C41.9643 32.4491 43.1742 34.4376 43.087 36.1393Z" fill="#7FA842"/>
<path fill-rule="evenodd" clip-rule="evenodd" d="M50.4703 46.9208V47.7343C50.4703 48.4158 49.8966 48.972 49.1937 48.972H32.0781V46.9208H50.4703Z" fill="#7FA842"/>
<path fill-rule="evenodd" clip-rule="evenodd" d="M32.2913 14.9961H46.4574C46.5978 14.9964 46.7323 15.0535 46.8316 15.1549C46.9308 15.2562 46.9867 15.3936 46.987 15.537V17.8652H31.7617V15.537C31.762 15.3936 31.8179 15.2562 31.9172 15.1549C32.0164 15.0535 32.151 14.9964 32.2913 14.9961Z" fill="#7FA842"/>
<path fill-rule="evenodd" clip-rule="evenodd" d="M34.0617 10.0033H44.6819C44.8504 10.0036 45.0118 10.0719 45.1311 10.1935C45.2503 10.315 45.3175 10.4798 45.3181 10.6518V13.2637H33.4287V10.654C33.4284 10.4821 33.4949 10.3171 33.6135 10.1951C33.7322 10.0731 33.8933 10.0041 34.0617 10.0033Z" fill="#7FA842"/>
<path fill-rule="evenodd" clip-rule="evenodd" d="M12.3645 44.6091V46.1744C12.3642 46.34 12.2997 46.4988 12.1852 46.616C12.0706 46.7332 11.9153 46.7993 11.7531 46.7999H4.75617C4.67527 46.8005 4.59505 46.7847 4.52012 46.7536C4.44519 46.7224 4.37702 46.6765 4.31952 46.6184C4.26201 46.5603 4.21631 46.4911 4.18502 46.415C4.15374 46.3388 4.13749 46.257 4.13721 46.1744V44.6091H12.3645Z" fill="#14303B"/>
</g>
<defs>
<clipPath id="clip0_282_535">
<rect width="50.4704" height="52.7645" fill="white"/>
</clipPath>
</defs>
</svg>
