<svg width="50" height="50" viewBox="0 0 50 50" fill="none" xmlns="http://www.w3.org/2000/svg">
<path d="M17.7016 46.8522C17.0654 45.8635 16.698 44.6931 16.698 43.4543V21.6222H3.39785C1.52428 21.6222 0 23.1464 0 25.02V43.4543C0 45.1631 1.26798 46.5806 2.91244 46.8169V48.308C2.91244 49.1122 3.56444 49.7642 4.36867 49.7642C5.17289 49.7642 5.82489 49.1122 5.82489 48.308V46.8521H17.7016V46.8522ZM5.82489 26.9616C5.82489 26.1574 6.47689 25.5054 7.28111 25.5054C8.08533 25.5054 8.73733 26.1574 8.73733 26.9616V41.5127C8.73733 42.3169 8.08533 42.9689 7.28111 42.9689C6.47689 42.9689 5.82489 42.3169 5.82489 41.5127V26.9616Z" fill="#14303B"/>
<path d="M13.5916 16.417C13.5916 15.9353 13.9837 15.5433 14.4654 15.5433H16.6982V15.3603C16.6982 14.3831 16.9215 13.4573 17.3198 12.6308H14.4654C12.3776 12.6308 10.6792 14.3293 10.6792 16.417V18.7096H13.5916V16.417Z" fill="#14303B"/>
<path d="M31.2601 3.84498C31.2601 3.36327 31.6521 2.97125 32.1338 2.97125H37.1821C37.6639 2.97125 38.0558 3.36327 38.0558 3.84498V9.05001H40.9682V3.84498C40.9682 1.75725 39.2698 0.0588074 37.1821 0.0588074H32.1338C30.0461 0.0588074 28.3477 1.75725 28.3477 3.84498V9.05001H31.2601V3.84498Z" fill="#14303B"/>
<path d="M46.3078 11.9625H23.0082C21.1346 11.9625 19.6104 13.4868 19.6104 15.3604V43.4543C19.6104 45.163 20.8783 46.5806 22.5228 46.8169V48.308C22.5228 49.1122 23.1748 49.7642 23.979 49.7642C24.7832 49.7642 25.4352 49.1122 25.4352 48.308V46.852H43.8807V48.308C43.8807 49.1122 44.5327 49.7642 45.3369 49.7642C46.1412 49.7642 46.7932 49.1122 46.7932 48.308V46.8169C48.4375 46.5806 49.7056 45.163 49.7056 43.4543V15.3604C49.7056 13.4867 48.1813 11.9625 46.3078 11.9625ZM28.3477 41.5127C28.3477 42.3169 27.6957 42.9689 26.8915 42.9689C26.0872 42.9689 25.4352 42.3169 25.4352 41.5127V17.302C25.4352 16.4978 26.0872 15.8458 26.8915 15.8458C27.6957 15.8458 28.3477 16.4978 28.3477 17.302V41.5127ZM42.4245 42.9689C41.6203 42.9689 40.9683 42.3169 40.9683 41.5127V17.302C40.9683 16.4978 41.6203 15.8458 42.4245 15.8458C43.2287 15.8458 43.8807 16.4978 43.8807 17.302V41.5127C43.8807 42.3169 43.2287 42.9689 42.4245 42.9689Z" fill="#7FA842"/>
</svg>
