<svg width="36" height="53" viewBox="0 0 36 53" fill="none" xmlns="http://www.w3.org/2000/svg">
<path d="M14.988 0C13.1726 1.64703 11.8014 3.5689 10.8985 5.73584C9.92936 8.06159 9.4751 10.7241 9.5427 13.656C11.7604 15.9789 13.5671 19.0745 14.9165 22.9065C15.2353 23.8116 15.513 24.7139 15.7557 25.5991C16.1642 23.7981 16.689 21.8921 17.3634 19.9764C17.5888 19.3363 17.8252 18.7142 18.0715 18.1082C17.426 10.9674 15.8437 3.6261 14.988 0Z" fill="#7FA842"/>
<path d="M26.5517 10.455C23.9749 12.9752 21.8722 16.5025 20.3016 20.9392C18.3474 26.4596 17.7134 32.0387 17.5103 34.8038C19.9464 33.9972 23.9525 30.7149 29.5473 19.9423C32.3918 14.465 34.6604 8.89847 35.8173 5.9072C32.2519 6.3964 29.1429 7.92058 26.5517 10.455Z" fill="#7FA842"/>
<path d="M11.9784 23.8696C9.47859 16.8162 5.45543 12.7828 0 11.847C0.989638 14.3751 2.76322 18.6585 4.95097 22.8677C8.34787 29.4032 11.6254 33.5625 14.2153 34.7074C14.0177 32.3437 13.4719 28.0836 11.9784 23.8696Z" fill="#7FA842"/>
<path d="M30.6336 37.9771H1.7583V52.7645H30.6336V37.9771Z" fill="#14303B"/>
</svg>
