<svg width="413" height="398" viewBox="0 0 413 398" fill="none" xmlns="http://www.w3.org/2000/svg">
<path opacity="0.2" d="M222.052 1.86806C209.655 1.05954 198.936 10.4611 198.138 22.8584C197.33 35.2557 206.731 45.9737 219.129 46.7718C231.526 47.5804 242.244 38.1788 243.052 25.7815C243.861 13.3842 234.459 2.67657 222.052 1.86806ZM219.346 43.486C217.75 43.3823 216.537 42.0037 216.641 40.4074C216.745 38.8111 218.123 37.5983 219.72 37.7019C221.316 37.8056 222.529 39.1842 222.425 40.7909C222.332 42.3768 220.943 43.5896 219.346 43.486Z" fill="#878D93"/>
<path d="M222.145 0.520644C209.748 -0.287873 199.03 9.11373 198.232 21.511C197.423 33.9083 206.825 44.6159 219.222 45.4244C231.619 46.233 242.337 36.8314 243.146 24.4341C243.944 12.0368 234.542 1.32916 222.145 0.520644ZM219.429 42.1385C217.833 42.0349 216.62 40.6563 216.724 39.06C216.827 37.4637 218.206 36.2509 219.802 36.3545C221.399 36.4582 222.611 37.8368 222.508 39.4331C222.415 41.0294 221.036 42.2422 219.429 42.1385Z" fill="#FCAB60"/>
<path opacity="0.2" d="M221.181 15.2086C214.878 14.794 209.426 19.5829 209.011 25.8852C208.659 31.3375 212.194 36.1471 217.231 37.6087C217.791 36.7898 218.745 36.2819 219.802 36.3441C220.859 36.4166 221.74 37.0489 222.186 37.93C227.379 37.1319 231.505 32.8198 231.857 27.3675C232.272 21.0652 227.493 15.6129 221.181 15.2086Z" fill="#878D93"/>
<path d="M232.106 23.729C231.692 30.0416 226.25 34.8202 219.937 34.4055C213.624 33.9909 208.846 28.549 209.26 22.2363C209.675 15.9237 215.117 11.1451 221.43 11.5597C227.732 11.964 232.51 17.4163 232.106 23.729Z" fill="white"/>
<path opacity="0.3" d="M14.5214 373.434C6.5192 372.915 0.40349 365.939 0.92177 357.937L21.9328 126.09C22.4511 118.087 29.4272 111.972 37.4294 112.49L396.142 135.833C404.144 136.351 410.259 143.328 409.741 151.33L400.516 383.944C399.998 391.947 393.021 398.062 385.019 397.544L14.5214 373.434Z" fill="#878D93"/>
<path d="M393.872 135.19L39.7618 112.148C32.1638 111.65 25.5402 117.465 25.0426 125.063L10.6137 346.742C10.1161 354.34 15.9312 360.964 23.5292 361.461L377.639 384.504C385.237 385.001 391.861 379.186 392.358 371.588L406.787 149.91C407.285 142.312 401.47 135.688 393.872 135.19ZM49.6298 143.597C47.65 143.597 46.0433 141.99 46.0433 140.01C46.0433 138.031 47.65 136.424 49.6298 136.424C51.6096 136.424 53.2163 138.031 53.2163 140.01C53.206 141.99 51.6096 143.597 49.6298 143.597ZM378.987 164.618C377.007 164.618 375.4 163.012 375.4 161.032C375.4 159.052 377.007 157.445 378.987 157.445C380.966 157.445 382.573 159.052 382.573 161.032C382.573 163.012 380.966 164.618 378.987 164.618Z" fill="#FCAB60"/>
<path d="M30.2572 350.339C25.7067 350.039 22.2238 346.079 22.5244 341.529L36.1759 131.791C36.4765 127.24 40.4362 123.758 44.9867 124.058L387.155 146.323C391.706 146.624 395.189 150.584 394.888 155.134L381.237 364.872C380.936 369.422 376.976 372.905 372.426 372.605L30.2572 350.339Z" stroke="#FFF9E1" stroke-width="1.03656" stroke-miterlimit="10" stroke-linecap="round" stroke-linejoin="round"/>
<path d="M33.2834 344.752C30.4432 344.565 28.2665 342.088 28.453 339.248L41.7521 134.817C41.9387 131.977 44.4161 129.8 47.2563 129.987L384.118 151.91C386.958 152.097 389.135 154.574 388.948 157.414L375.649 361.845C375.462 364.685 372.985 366.862 370.145 366.675L33.2834 344.752Z" stroke="#FFF9E1" stroke-width="2.07312" stroke-miterlimit="10" stroke-linecap="round" stroke-linejoin="round"/>
<path d="M396.546 129.583L37.8336 106.239C28.3283 105.617 20.0566 112.894 19.4346 122.389L4.7051 348.67C4.08316 358.175 11.3495 366.447 20.8547 367.069L379.577 390.412C389.072 391.034 397.354 383.768 397.976 374.263L412.706 147.971C413.317 138.476 406.051 130.194 396.546 129.583ZM392.358 371.588C391.86 379.186 385.237 385.001 377.639 384.504L23.529 361.461C15.931 360.964 10.1159 354.34 10.6135 346.742L25.0424 125.063C25.54 117.465 32.1636 111.65 39.7616 112.148L393.871 135.19C401.469 135.688 407.284 142.312 406.787 149.91L392.358 371.588Z" fill="#FFF9E1"/>
<path d="M23.5292 361.461L377.639 384.504C385.237 385.002 391.861 379.187 392.358 371.589L392.638 367.266C392.141 374.864 385.517 380.679 377.919 380.182L23.8091 357.149C16.2111 356.652 10.396 350.028 10.8936 342.43L10.6137 346.753C10.1161 354.34 15.9312 360.964 23.5292 361.461Z" fill="#FFF9E1"/>
<mask id="mask0_1688_219" style="mask-type:luminance" maskUnits="userSpaceOnUse" x="4" y="106" width="409" height="285">
<path d="M396.546 129.583L37.8336 106.239C28.3283 105.617 20.0566 112.894 19.4346 122.389L4.7051 348.67C4.08316 358.175 11.3495 366.447 20.8547 367.069L379.577 390.412C389.072 391.034 397.354 383.768 397.976 374.263L412.706 147.971C413.317 138.476 406.051 130.194 396.546 129.583ZM392.358 371.588C391.86 379.186 385.237 385.001 377.639 384.504L23.529 361.461C15.931 360.964 10.1159 354.34 10.6135 346.742L25.0424 125.063C25.54 117.465 32.1636 111.65 39.7616 112.148L393.871 135.19C401.469 135.688 407.284 142.312 406.787 149.91L392.358 371.588Z" fill="white"/>
</mask>
<g mask="url(#mask0_1688_219)">
<path opacity="0.2" d="M19.2484 405.132L-12.999 403.027L114.778 65.5647L147.025 67.6585L19.2484 405.132Z" fill="#FFF9E1"/>
<path opacity="0.2" d="M292.745 422.929L276.626 421.882L404.403 84.4094L420.522 85.4564L292.745 422.929Z" fill="#FFF9E1"/>
<path opacity="0.1" d="M192.562 416.409L160.314 414.305L288.091 76.8425L320.339 78.9364L192.562 416.409Z" fill="#FFF9E1"/>
<path opacity="0.1" d="M177.303 415.414L71.6465 408.542L199.423 71.0688L305.08 77.9516L177.303 415.414Z" fill="#FFF9E1"/>
</g>
<path d="M78.074 276.831L92.6472 277.779C92.0907 283.241 90.6882 287.794 88.4397 291.436C86.1933 295.045 83.1542 297.697 79.3224 299.393C75.5239 301.09 71.0206 301.77 65.8123 301.431C61.7725 301.168 58.2269 300.267 55.1754 298.728C52.1261 297.155 49.5855 294.978 47.5535 292.197C45.5216 289.416 44.0639 286.052 43.1807 282.106C42.333 278.128 42.0741 273.602 42.4042 268.527L43.2087 256.157C43.5387 251.082 44.415 246.63 45.8376 242.8C47.2935 238.972 49.209 235.811 51.5841 233.316C53.9947 230.791 56.8126 228.962 60.0378 227.831C63.2985 226.669 66.9154 226.216 70.8883 226.475C76.1968 226.82 80.5721 228.11 84.0141 230.346C87.4562 232.582 90.0206 235.682 91.7073 239.647C93.4296 243.582 94.3119 248.316 94.3542 253.851L79.6809 252.897C79.8399 249.42 79.633 246.674 79.06 244.659C78.5225 242.612 77.5453 241.14 76.1284 240.243C74.7137 239.313 72.7043 238.764 70.1002 238.594C68.1637 238.468 66.4716 238.71 65.0238 239.32C63.5781 239.897 62.3557 240.907 61.3566 242.351C60.3574 243.794 59.5616 245.721 58.9691 248.13C58.4099 250.541 58.0164 253.499 57.7884 257.005L56.9774 269.475C56.7537 272.913 56.7463 275.863 56.955 278.324C57.1659 280.752 57.6221 282.76 58.3235 284.348C59.0249 285.936 60.0372 287.125 61.3604 287.915C62.7171 288.707 64.4637 289.173 66.6005 289.312C69.0711 289.473 71.0815 289.234 72.6316 288.598C74.2152 287.963 75.4361 286.718 76.2943 284.863C77.1526 283.008 77.7458 280.33 78.074 276.831ZM141.485 293.176L140.696 305.295L110.398 303.325L111.186 291.206L141.485 293.176ZM119.648 230.702L114.905 303.618L100.232 302.664L104.974 229.748L119.648 230.702ZM199.976 266.856L199.184 279.025C198.85 284.167 197.922 288.632 196.402 292.423C194.917 296.182 192.938 299.289 190.465 301.743C188.027 304.166 185.147 305.923 181.824 307.015C178.534 308.108 174.936 308.528 171.03 308.274C167.123 308.02 163.593 307.137 160.44 305.624C157.319 304.113 154.674 301.997 152.504 299.274C150.37 296.52 148.793 293.182 147.774 289.26C146.758 285.305 146.416 280.756 146.751 275.615L147.542 263.446C147.885 258.17 148.803 253.603 150.294 249.744C151.788 245.851 153.789 242.662 156.297 240.177C158.808 237.658 161.71 235.835 165.002 234.708C168.296 233.548 171.896 233.094 175.802 233.348C179.708 233.602 183.219 234.518 186.335 236.095C189.454 237.639 192.094 239.823 194.258 242.646C196.423 245.435 197.995 248.857 198.971 252.91C199.984 256.932 200.319 261.581 199.976 266.856ZM184.611 278.077L185.409 265.808C185.635 262.336 185.576 259.365 185.234 256.895C184.894 254.392 184.274 252.323 183.375 250.689C182.475 249.054 181.331 247.823 179.944 246.995C178.556 246.167 176.91 245.692 175.007 245.568C173.104 245.444 171.394 245.702 169.878 246.341C168.394 246.982 167.101 248.054 165.997 249.558C164.927 251.065 164.061 253.037 163.399 255.475C162.774 257.881 162.348 260.821 162.122 264.293L161.324 276.563C161.107 279.901 161.171 282.772 161.518 285.175C161.865 287.578 162.49 289.563 163.394 291.131C164.298 292.699 165.444 293.896 166.831 294.724C168.255 295.521 169.918 295.981 171.821 296.105C173.691 296.226 175.366 295.983 176.847 295.375C178.364 294.737 179.656 293.697 180.721 292.258C181.787 290.818 182.648 288.93 183.303 286.592C183.958 284.254 184.394 281.416 184.611 278.077ZM240 292.492C240.085 291.19 240.045 289.997 239.881 288.914C239.716 287.83 239.28 286.813 238.57 285.861C237.894 284.912 236.868 283.94 235.491 282.945C234.147 281.953 232.372 280.898 230.165 279.783C227.534 278.472 224.992 277.099 222.537 275.666C220.084 274.198 217.895 272.547 215.969 270.712C214.043 268.877 212.554 266.768 211.502 264.387C210.485 261.974 210.079 259.198 210.283 256.06C210.483 252.988 211.215 250.236 212.48 247.804C213.778 245.374 215.519 243.341 217.704 241.706C219.892 240.038 222.402 238.81 225.236 238.022C228.104 237.236 231.257 236.955 234.696 237.179C239.37 237.483 243.347 238.714 246.626 240.871C249.939 243.031 252.421 245.858 254.071 249.352C255.755 252.848 256.454 256.782 256.17 261.156L241.547 260.205C241.681 258.135 241.499 256.296 241 254.688C240.537 253.048 239.7 251.737 238.49 250.753C237.28 249.769 235.673 249.212 233.67 249.081C231.8 248.96 230.223 249.243 228.938 249.93C227.688 250.587 226.72 251.546 226.035 252.809C225.385 254.041 225.008 255.458 224.903 257.061C224.825 258.263 225.038 259.366 225.543 260.371C226.083 261.345 226.846 262.25 227.831 263.085C228.818 263.887 229.99 264.684 231.347 265.476C232.737 266.271 234.261 267.057 235.921 267.836C239.141 269.353 241.969 270.978 244.404 272.712C246.842 274.413 248.849 276.287 250.426 278.334C252.005 280.348 253.15 282.585 253.862 285.045C254.573 287.506 254.829 290.272 254.63 293.343C254.432 296.381 253.718 299.118 252.486 301.552C251.291 303.955 249.633 305.993 247.512 307.666C245.394 309.305 242.885 310.517 239.984 311.3C237.116 312.086 233.946 312.366 230.474 312.14C227.102 311.921 223.944 311.246 221 310.116C218.058 308.952 215.499 307.327 213.321 305.241C211.179 303.124 209.554 300.52 208.448 297.431C207.343 294.308 206.926 290.676 207.195 286.537L221.868 287.491C221.725 289.694 221.819 291.595 222.151 293.192C222.485 294.756 223.073 296.035 223.913 297.028C224.756 297.988 225.813 298.744 227.085 299.297C228.392 299.817 229.897 300.133 231.6 300.244C233.536 300.37 235.096 300.103 236.279 299.442C237.495 298.783 238.394 297.853 238.975 296.65C239.556 295.447 239.898 294.061 240 292.492ZM305.896 303.869L305.108 315.988L273.408 313.927L274.196 301.807L305.896 303.869ZM282.707 241.307L277.965 314.223L263.292 313.269L268.034 240.353L282.707 241.307ZM303.672 272.342L302.906 284.111L275.463 282.326L276.228 270.558L303.672 272.342ZM309.75 243.066L308.959 255.235L277.358 253.18L278.15 241.011L309.75 243.066ZM332.702 317.783L319.831 316.946L320.72 304.833L333.49 305.664C337.029 305.894 339.825 305.439 341.877 304.298C343.929 303.157 345.445 301.244 346.425 298.559C347.437 295.875 348.088 292.313 348.377 287.873L349.116 276.505C349.335 273.133 349.304 270.264 349.022 267.899C348.742 265.5 348.131 263.55 347.19 262.047C346.25 260.51 344.935 259.335 343.245 258.521C341.554 257.707 339.424 257.216 336.853 257.049L323.532 256.183L324.323 244.014L337.644 244.88C341.851 245.153 345.629 246.087 348.979 247.679C352.329 249.271 355.153 251.467 357.452 254.265C359.754 257.03 361.447 260.375 362.533 264.302C363.619 268.228 364.002 272.645 363.683 277.553L362.95 288.821C362.629 293.762 361.676 298.092 360.093 301.811C358.51 305.531 356.398 308.629 353.756 311.105C351.149 313.551 348.065 315.345 344.504 316.488C340.943 317.632 337.009 318.063 332.702 317.783ZM333.087 244.583L328.345 317.5L313.672 316.545L318.414 243.629L333.087 244.583Z" fill="#FFF9E1"/>
<path d="M219.834 209.851L226.893 182.321L230.36 182.546L231.114 186.936L223.635 215.027L219.876 214.782L219.834 209.851ZM219.846 181.862L222.262 210.077L221.226 214.87L217.084 214.601L213.34 181.439L219.846 181.862ZM233.391 210.688L239.41 183.135L245.894 183.556L237.931 215.957L233.766 215.686L233.391 210.688ZM232.364 182.676L235.831 211.05L235.095 215.772L231.335 215.528L227.583 186.661L228.919 182.452L232.364 182.676ZM266.563 212.348L266.208 217.796L251.957 216.869L252.312 211.421L266.563 212.348ZM256.138 184.223L254.006 217.002L247.41 216.573L249.541 183.794L256.138 184.223ZM265.563 198.175L265.219 203.465L252.881 202.663L253.225 197.372L265.563 198.175ZM268.295 185.013L267.939 190.484L253.733 189.56L254.089 184.089L268.295 185.013ZM294.3 192.583L285.502 219.051L278.546 218.598L290.921 186.485L295.266 186.767L294.3 192.583ZM298.11 219.871L292.769 192.483L292.497 186.587L296.91 186.874L305.112 220.326L298.11 219.871ZM299.153 207.662L298.797 213.133L284.005 212.171L284.361 206.7L299.153 207.662ZM310.395 187.751L320.909 188.435C323.101 188.578 324.945 189.074 326.442 189.925C327.939 190.776 329.052 191.964 329.782 193.489C330.512 195.013 330.807 196.856 330.666 199.017C330.551 200.789 330.212 202.289 329.65 203.518C329.089 204.733 328.338 205.732 327.398 206.514C326.459 207.282 325.357 207.874 324.094 208.289L322.013 209.352L313.481 208.797L313.814 203.325L319.735 203.71C320.635 203.769 321.391 203.622 322.002 203.27C322.629 202.903 323.108 202.369 323.44 201.667C323.788 200.952 323.994 200.106 324.057 199.13C324.124 198.095 324.047 197.2 323.825 196.447C323.618 195.68 323.243 195.083 322.698 194.656C322.169 194.214 321.454 193.964 320.553 193.906L316.636 193.651L314.86 220.96L308.264 220.531L310.395 187.751ZM323.145 221.499L318.084 206.497L324.997 206.924L330.212 221.642L330.192 221.957L323.145 221.499ZM352.924 217.964L352.57 223.412L338.319 222.486L338.673 217.037L352.924 217.964ZM342.5 189.839L340.368 222.619L333.771 222.19L335.903 189.41L342.5 189.839ZM351.924 203.791L351.58 209.082L339.243 208.28L339.587 202.989L351.924 203.791ZM354.657 190.63L354.301 196.101L340.095 195.177L340.451 189.706L354.657 190.63Z" fill="#FFF9E1"/>
<path d="M65.1873 167.882L62.3047 212.206L190.93 220.571L193.813 176.248L65.1873 167.882Z" fill="#FFF9E1"/>
<path d="M88.1634 194.703C88.1897 194.298 88.1774 193.928 88.1263 193.591C88.0752 193.254 87.9394 192.937 87.7189 192.642C87.5088 192.346 87.1896 192.044 86.7614 191.735C86.3437 191.426 85.7916 191.098 85.1053 190.751C84.2874 190.344 83.4967 189.917 82.7334 189.471C81.9708 189.015 81.2901 188.502 80.6913 187.931C80.0924 187.36 79.6295 186.705 79.3023 185.964C78.9863 185.214 78.8599 184.351 78.9234 183.375C78.9855 182.42 79.2132 181.564 79.6064 180.808C80.01 180.052 80.5515 179.42 81.2309 178.912C81.911 178.393 82.6916 178.011 83.5729 177.766C84.4645 177.522 85.4449 177.435 86.5141 177.504C87.9675 177.599 89.204 177.982 90.2237 178.653C91.2538 179.324 92.0255 180.203 92.5386 181.289C93.0621 182.376 93.2797 183.6 93.1912 184.96L88.6443 184.664C88.6862 184.02 88.6295 183.449 88.4744 182.949C88.3303 182.439 88.0702 182.031 87.6939 181.725C87.3177 181.419 86.8181 181.246 86.1952 181.205C85.6139 181.167 85.1234 181.255 84.7238 181.469C84.3352 181.673 84.0343 181.972 83.8211 182.364C83.619 182.747 83.5017 183.188 83.4693 183.686C83.445 184.06 83.5113 184.403 83.6682 184.716C83.8362 185.019 84.0733 185.3 84.3796 185.56C84.6865 185.809 85.0509 186.057 85.4728 186.303C85.905 186.55 86.379 186.795 86.895 187.037C87.8964 187.508 88.7757 188.014 89.5329 188.553C90.2908 189.082 90.9149 189.665 91.4052 190.301C91.8962 190.927 92.2523 191.623 92.4736 192.388C92.6949 193.153 92.7745 194.013 92.7124 194.968C92.6509 195.913 92.4288 196.763 92.046 197.52C91.6742 198.268 91.1586 198.901 90.4993 199.421C89.8407 199.931 89.0603 200.308 88.1584 200.551C87.2668 200.796 86.2812 200.883 85.2015 200.813C84.153 200.744 83.1711 200.535 82.2557 200.183C81.341 199.821 80.545 199.316 79.8679 198.667C79.2018 198.009 78.6967 197.2 78.3526 196.239C78.0092 195.268 77.8794 194.139 77.9631 192.852L82.5256 193.148C82.481 193.833 82.5103 194.424 82.6136 194.921C82.7175 195.407 82.9001 195.805 83.1615 196.114C83.4235 196.412 83.7523 196.647 84.1477 196.819C84.5542 196.981 85.0221 197.079 85.5516 197.114C86.1537 197.153 86.6386 197.07 87.0064 196.864C87.3846 196.66 87.6641 196.37 87.8448 195.996C88.0255 195.622 88.1317 195.191 88.1634 194.703ZM112.187 189.104L111.941 192.888C111.837 194.486 111.549 195.875 111.076 197.054C110.614 198.222 109.999 199.188 109.23 199.952C108.472 200.705 107.576 201.251 106.543 201.591C105.52 201.931 104.401 202.061 103.187 201.982C101.972 201.903 100.875 201.629 99.894 201.158C98.9237 200.689 98.1012 200.031 97.4265 199.184C96.7629 198.328 96.2727 197.29 95.9558 196.07C95.6397 194.84 95.5336 193.426 95.6375 191.827L95.8836 188.043C95.9903 186.403 96.2755 184.983 96.7393 183.783C97.2037 182.573 97.826 181.581 98.606 180.808C99.3867 180.025 100.289 179.458 101.312 179.108C102.337 178.747 103.456 178.606 104.671 178.685C105.885 178.764 106.977 179.049 107.946 179.539C108.916 180.019 109.737 180.698 110.409 181.576C111.083 182.443 111.571 183.507 111.875 184.768C112.19 186.018 112.294 187.464 112.187 189.104ZM107.41 192.593L107.658 188.778C107.728 187.698 107.71 186.775 107.604 186.007C107.498 185.228 107.305 184.585 107.025 184.077C106.746 183.569 106.39 183.186 105.958 182.928C105.527 182.671 105.015 182.523 104.424 182.485C103.832 182.446 103.3 182.526 102.829 182.725C102.367 182.924 101.965 183.258 101.622 183.725C101.289 184.194 101.02 184.807 100.814 185.565C100.62 186.313 100.487 187.227 100.417 188.307L100.169 192.122C100.101 193.16 100.122 194.053 100.229 194.8C100.337 195.547 100.531 196.165 100.813 196.652C101.094 197.139 101.45 197.512 101.881 197.769C102.324 198.017 102.841 198.16 103.433 198.198C104.014 198.236 104.535 198.161 104.996 197.972C105.467 197.773 105.869 197.45 106.2 197.002C106.532 196.555 106.799 195.967 107.003 195.241C107.207 194.514 107.342 193.631 107.41 192.593ZM116.142 179.744L123.414 180.217C124.93 180.315 126.206 180.659 127.241 181.248C128.277 181.836 129.047 182.658 129.551 183.712C130.056 184.767 130.26 186.041 130.163 187.536C130.083 188.761 129.849 189.799 129.46 190.649C129.072 191.489 128.552 192.18 127.902 192.722C127.253 193.253 126.491 193.662 125.617 193.949L124.178 194.684L118.276 194.301L118.507 190.516L122.602 190.782C123.225 190.822 123.748 190.721 124.17 190.477C124.603 190.224 124.935 189.855 125.165 189.369C125.405 188.874 125.548 188.289 125.592 187.614C125.638 186.898 125.585 186.279 125.431 185.759C125.288 185.228 125.028 184.815 124.651 184.519C124.285 184.214 123.791 184.041 123.168 184.001L120.459 183.825L119.23 202.713L114.668 202.416L116.142 179.744ZM124.961 203.086L121.46 192.709L126.242 193.005L129.849 203.185L129.835 203.403L124.961 203.086ZM133.801 180.892L141.073 181.365C142.588 181.464 143.864 181.807 144.899 182.396C145.935 182.985 146.705 183.806 147.21 184.861C147.715 185.915 147.918 187.19 147.821 188.685C147.741 189.91 147.507 190.947 147.118 191.798C146.73 192.638 146.211 193.329 145.56 193.87C144.911 194.401 144.149 194.81 143.276 195.098L141.836 195.833L135.934 195.449L136.165 191.664L140.26 191.93C140.883 191.971 141.406 191.869 141.828 191.626C142.262 191.372 142.593 191.003 142.823 190.518C143.064 190.022 143.206 189.438 143.25 188.763C143.296 188.046 143.243 187.428 143.089 186.907C142.946 186.377 142.687 185.963 142.31 185.668C141.944 185.363 141.449 185.19 140.826 185.149L138.117 184.973L136.889 203.861L132.326 203.565L133.801 180.892ZM142.619 204.234L139.119 193.858L143.9 194.153L147.507 204.333L147.493 204.551L142.619 204.234ZM154.059 182.21L156.852 192.65L160.942 182.658L165.909 182.981L158.866 197.019L158.331 205.256L153.737 204.957L154.273 196.72L149.108 181.888L154.059 182.21Z" fill="#FCAB60"/>
<g opacity="0.4">
<path d="M393.871 135.19L39.7612 112.148C32.1633 111.65 25.5396 117.465 25.0421 125.063L24.7622 129.386C25.2598 121.788 31.8834 115.973 39.4814 116.47L393.591 139.513C401.189 140.01 407.004 146.634 406.507 154.232L406.787 149.91C407.284 142.312 401.469 135.688 393.871 135.19Z" fill="#878D93"/>
</g>
<g opacity="0.6">
<mask id="mask1_1688_219" style="mask-type:luminance" maskUnits="userSpaceOnUse" x="10" y="112" width="397" height="273">
<path d="M23.5292 361.461C15.9312 360.964 10.1161 354.34 10.6137 346.742L25.0426 125.063C25.5402 117.465 32.1638 111.65 39.7618 112.148L393.872 135.19C401.47 135.688 407.285 142.312 406.787 149.91L392.358 371.588C391.861 379.186 385.237 385.001 377.639 384.504L23.5292 361.461Z" fill="white"/>
</mask>
<g mask="url(#mask1_1688_219)">
<path opacity="0.2" d="M46.3333 362.943L-12.7817 359.098L116.177 117.113L175.292 120.969L46.3333 362.943Z" fill="#FFF9E1"/>
</g>
<mask id="mask2_1688_219" style="mask-type:luminance" maskUnits="userSpaceOnUse" x="10" y="112" width="397" height="273">
<path d="M23.5292 361.461C15.9312 360.964 10.1161 354.34 10.6137 346.742L25.0426 125.063C25.5402 117.465 32.1638 111.65 39.7618 112.148L393.872 135.19C401.47 135.688 407.285 142.312 406.787 149.91L392.358 371.588C391.861 379.186 385.237 385.001 377.639 384.504L23.5292 361.461Z" fill="white"/>
</mask>
<g mask="url(#mask2_1688_219)">
<path opacity="0.1" d="M207.654 373.444L105.449 366.789L234.407 124.814L336.612 131.459L207.654 373.444Z" fill="#FFF9E1"/>
</g>
<mask id="mask3_1688_219" style="mask-type:luminance" maskUnits="userSpaceOnUse" x="10" y="112" width="397" height="273">
<path d="M23.5292 361.461C15.9312 360.964 10.1161 354.34 10.6137 346.742L25.0426 125.063C25.5402 117.465 32.1638 111.65 39.7618 112.148L393.872 135.19C401.47 135.688 407.285 142.312 406.787 149.91L392.358 371.588C391.861 379.186 385.237 385.001 377.639 384.504L23.5292 361.461Z" fill="white"/>
</mask>
<g mask="url(#mask3_1688_219)">
<path opacity="0.1" d="M58.295 363.721L28.7427 361.803L157.701 119.818L187.254 121.746L58.295 363.721Z" fill="#FFF9E1"/>
</g>
<mask id="mask4_1688_219" style="mask-type:luminance" maskUnits="userSpaceOnUse" x="10" y="112" width="397" height="273">
<path d="M23.5292 361.461C15.9312 360.964 10.1161 354.34 10.6137 346.742L25.0426 125.063C25.5402 117.465 32.1638 111.65 39.7618 112.148L393.872 135.19C401.47 135.688 407.285 142.312 406.787 149.91L392.358 371.588C391.861 379.186 385.237 385.001 377.639 384.504L23.5292 361.461Z" fill="white"/>
</mask>
<g mask="url(#mask4_1688_219)">
<path opacity="0.1" d="M-65.3045 355.677L-94.8672 353.759L34.0913 111.774L63.654 113.702L-65.3045 355.677Z" fill="#FFF9E1"/>
</g>
<mask id="mask5_1688_219" style="mask-type:luminance" maskUnits="userSpaceOnUse" x="10" y="112" width="397" height="273">
<path d="M23.5292 361.461C15.9312 360.964 10.1161 354.34 10.6137 346.742L25.0426 125.063C25.5402 117.465 32.1638 111.65 39.7618 112.148L393.872 135.19C401.47 135.688 407.285 142.312 406.787 149.91L392.358 371.588C391.861 379.186 385.237 385.001 377.639 384.504L23.5292 361.461Z" fill="white"/>
</mask>
<g mask="url(#mask5_1688_219)">
<path opacity="0.1" d="M332.6 381.57L303.048 379.653L432.006 137.667L461.559 139.595L332.6 381.57Z" fill="#FFF9E1"/>
</g>
<mask id="mask6_1688_219" style="mask-type:luminance" maskUnits="userSpaceOnUse" x="10" y="112" width="397" height="273">
<path d="M23.5292 361.461C15.9312 360.964 10.1161 354.34 10.6137 346.742L25.0426 125.063C25.5402 117.465 32.1638 111.65 39.7618 112.148L393.872 135.19C401.47 135.688 407.285 142.312 406.787 149.91L392.358 371.588C391.861 379.186 385.237 385.001 377.639 384.504L23.5292 361.461Z" fill="white"/>
</mask>
<g mask="url(#mask6_1688_219)">
<path opacity="0.2" d="M310.884 380.16L281.322 378.232L410.28 136.258L439.833 138.186L310.884 380.16Z" fill="#FFF9E1"/>
</g>
</g>
<path opacity="0.3" d="M379.215 159.653L220.527 67.9591L221.533 52.4729C221.585 51.737 220.849 51.1047 219.895 51.0425C218.941 50.9803 218.133 51.5193 218.081 52.2553L217.076 67.7415L49.8059 138.601C48.8523 138.642 48.1474 139.264 48.2407 140C48.3236 140.736 49.1632 141.296 50.1169 141.254L216.899 70.4054L216.889 70.5402C216.837 71.2658 217.573 71.9084 218.527 71.9706C219.481 72.0328 220.289 71.4938 220.341 70.7579L220.351 70.6335L378.541 162.234C378.624 162.245 378.707 162.255 378.8 162.265C379.639 162.317 380.407 161.892 380.583 161.25C380.759 160.534 380.147 159.819 379.215 159.653Z" fill="#878D93"/>
<path d="M219.004 64.632L219.522 40.7393" stroke="#353535" stroke-width="3.10968" stroke-miterlimit="10" stroke-linecap="round"/>
<path d="M49.6304 140.01L219.149 62.4653L379.568 160.959" stroke="#353535" stroke-width="3.10968" stroke-miterlimit="10" stroke-linecap="round"/>
</svg>
