<svg width="290" height="96" viewBox="0 0 290 96" fill="none" xmlns="http://www.w3.org/2000/svg">
<path d="M9.77765 59.3975L2.23232 63.2954L6.23694 19.2979C6.63154 15.24 9.51103 12.1738 12.9344 12.1738H60.766C64.1414 12.1738 66.9835 15.192 67.3781 19.1966L69.4951 38.7238L8.78583 74.9627L7.13279 86.9126H66.7542L63.1549 46.829L69.911 43.4003L73.649 86.0647C74.0916 90.9385 70.9028 95.1938 66.7969 95.2098L7.34609 95.4391C2.97353 95.4551 -0.439208 90.9225 0.0460399 85.7341L2.45095 68.2172L61.9178 32.7195L60.6273 20.1618H12.9291L9.78298 59.4028L9.77765 59.3975Z" fill="#7FA842"/>
<path d="M49.739 12.9044V22.0814H42.6042V12.9044C42.6042 11.3153 41.959 9.87024 40.9139 8.8251C39.8687 7.77995 38.429 7.13474 36.8346 7.13474C33.6512 7.13474 31.0703 9.71561 31.0703 12.899V22.0761H23.9355V12.899C23.9355 5.77498 29.7105 0 36.8346 0C43.9587 0 49.7336 5.77498 49.7336 12.899L49.739 12.9044Z" fill="#14303B"/>
<path d="M24.5643 47.0317C28.5165 47.0317 31.7203 43.8278 31.7203 39.8756C31.7203 35.9234 28.5165 32.7195 24.5643 32.7195C20.6121 32.7195 17.4082 35.9234 17.4082 39.8756C17.4082 43.8278 20.6121 47.0317 24.5643 47.0317Z" fill="#14303B"/>
<path d="M24.5647 43.7469C26.7027 43.7469 28.436 42.0137 28.436 39.8756C28.436 37.7375 26.7027 36.0043 24.5647 36.0043C22.4266 36.0043 20.6934 37.7375 20.6934 39.8756C20.6934 42.0137 22.4266 43.7469 24.5647 43.7469Z" fill="white"/>
<path d="M47.8611 76.5304C51.8133 76.5304 55.0172 73.3266 55.0172 69.3744C55.0172 65.4222 51.8133 62.2183 47.8611 62.2183C43.909 62.2183 40.7051 65.4222 40.7051 69.3744C40.7051 73.3266 43.909 76.5304 47.8611 76.5304Z" fill="#14303B"/>
<path d="M47.8616 73.2457C49.9996 73.2457 51.7329 71.5124 51.7329 69.3744C51.7329 67.2363 49.9996 65.5031 47.8616 65.5031C45.7235 65.5031 43.9902 67.2363 43.9902 69.3744C43.9902 71.5124 45.7235 73.2457 47.8616 73.2457Z" fill="white"/>
<path d="M124.173 38.4039H114.916V71.598H124.173V38.4039Z" fill="#14303B"/>
<path d="M152.675 38.3452L144.41 59.2588L136.144 38.3452H126.52L139.659 71.598H149.161L162.3 38.3452H152.675Z" fill="#14303B"/>
<path d="M177.913 64.186C175.961 64.186 174.207 63.6261 172.65 62.5116C171.093 61.3971 170.181 59.9574 169.898 58.203H192.363C191.798 56.0167 191.521 53.6971 191.521 51.2389C191.521 49.6125 191.494 47.7409 191.74 46.2318C190.977 44.6588 190.065 43.5869 188.7 42.4085C185.613 39.7423 181.853 38.4039 177.427 38.4039C173.002 38.4039 169.168 39.8969 165.915 42.8937C162.667 45.8799 161.041 49.9165 161.041 54.9769C161.041 60.0374 162.641 64.0793 165.83 67.0868C169.018 70.0942 173.055 71.598 177.939 71.598C182.824 71.598 187.079 69.8863 190.71 66.4522L185.687 61.0132C183.656 63.1248 181.059 64.1806 177.913 64.1806V64.186ZM172.708 47.4369C174.185 46.3598 175.812 45.8265 177.582 45.8265C179.352 45.8265 180.867 46.3438 182.099 47.3836C183.336 48.4181 184.05 49.8952 184.248 51.8095H170.133C170.373 49.9751 171.231 48.5141 172.703 47.4423L172.708 47.4369Z" fill="#14303B"/>
<path d="M94.1787 63.0235V28.4749H84.5537V71.598H112.565V63.0235H94.1787Z" fill="#14303B"/>
<path d="M123.139 28.2883C122.158 27.3071 120.958 26.8219 119.545 26.8219C118.132 26.8219 116.927 27.3071 115.951 28.2883C114.97 29.2641 114.484 30.4639 114.484 31.8823C114.484 33.3008 114.97 34.5005 115.951 35.4764C116.932 36.4522 118.132 36.9428 119.545 36.9428C120.958 36.9428 122.163 36.4522 123.139 35.4764C124.12 34.4952 124.605 33.2954 124.605 31.8823C124.605 30.4693 124.12 29.2588 123.139 28.2883Z" fill="#14303B"/>
<path d="M224.822 89.2909C226.395 89.2909 227.68 88.667 228.677 87.4245L230.73 89.5361C229.104 91.3705 227.184 92.2823 224.977 92.2823C222.769 92.2823 220.951 91.5838 219.522 90.192C218.092 88.7949 217.378 87.0352 217.378 84.913C217.378 82.7907 218.108 81.015 219.564 79.5912C221.02 78.1675 222.801 77.4583 224.907 77.4583C227.259 77.4583 229.227 78.3541 230.816 80.1458L228.827 82.4014C227.813 81.143 226.555 80.5137 225.051 80.5137C223.846 80.5137 222.817 80.9083 221.964 81.6922C221.111 82.4761 220.684 83.5372 220.684 84.8703C220.684 86.2034 221.089 87.2752 221.894 88.0804C222.7 88.8856 223.681 89.2909 224.827 89.2909H224.822Z" fill="#14303B"/>
<path d="M242.077 86.6033C242.077 88.203 241.523 89.5521 240.419 90.6452C239.31 91.7384 237.918 92.2876 236.244 92.2876C234.569 92.2876 233.178 91.7437 232.069 90.6452C230.959 89.5521 230.41 88.203 230.41 86.6033C230.41 85.0036 230.965 83.6545 232.069 82.5507C233.178 81.4522 234.569 80.8976 236.244 80.8976C237.918 80.8976 239.31 81.4469 240.419 82.5507C241.528 83.6492 242.077 85.0036 242.077 86.6033ZM233.503 86.6033C233.503 87.5045 233.759 88.2404 234.271 88.8056C234.783 89.3708 235.439 89.6588 236.238 89.6588C237.038 89.6588 237.694 89.3762 238.206 88.8056C238.718 88.2404 238.974 87.5045 238.974 86.6033C238.974 85.7021 238.718 84.9609 238.206 84.3904C237.694 83.8145 237.038 83.5318 236.238 83.5318C235.439 83.5318 234.783 83.8198 234.271 84.3904C233.759 84.9663 233.503 85.7021 233.503 86.6033Z" fill="#14303B"/>
<path d="M244.52 50.727C244.52 57.6378 242.046 63.4554 237.097 68.1799C232.149 72.9044 225.931 75.2667 218.445 75.2667C210.958 75.2667 204.74 72.9044 199.792 68.1799C194.843 63.4554 192.369 57.6378 192.369 50.727C192.369 43.8162 194.843 37.9826 199.792 33.2314C204.74 28.4803 210.958 26.102 218.445 26.102C225.931 26.102 232.149 28.4803 237.097 33.2314C242.046 37.9879 244.52 43.8162 244.52 50.727ZM206.207 50.727C206.207 54.625 207.353 57.8031 209.641 60.2506C211.934 62.7035 214.866 63.9247 218.439 63.9247C222.012 63.9247 224.945 62.6982 227.238 60.2506C229.531 57.7977 230.677 54.625 230.677 50.727C230.677 46.829 229.531 43.6403 227.238 41.1607C224.945 38.6811 222.012 37.4387 218.439 37.4387C214.866 37.4387 211.934 38.6811 209.641 41.1607C207.348 43.6403 206.207 46.829 206.207 50.727Z" fill="#7FA842"/>
<path d="M250.466 87.0352V81.0896H253.564V92.1223H250.466V90.6666C249.698 91.7491 248.712 92.2876 247.501 92.2876C246.291 92.2876 245.278 91.909 244.456 91.1518C243.635 90.3946 243.225 89.2695 243.225 87.7764V81.0896H246.323V87.0992C246.323 88.7949 246.947 89.6428 248.189 89.6428C248.802 89.6428 249.336 89.4188 249.789 88.9762C250.242 88.5336 250.466 87.8884 250.466 87.0406V87.0352Z" fill="#14303B"/>
<path d="M261.28 80.903C262.565 80.903 263.711 81.4415 264.714 82.5134C265.716 83.5852 266.223 84.9343 266.223 86.566C266.223 88.1977 265.721 89.5521 264.714 90.6453C263.711 91.7384 262.533 92.2876 261.189 92.2876C259.845 92.2876 258.757 91.7491 257.936 90.6666V95.4391H254.859V81.0896H257.936V82.3214C258.88 81.3776 259.994 80.9083 261.28 80.9083V80.903ZM257.899 86.614C257.899 87.5098 258.149 88.2404 258.645 88.8056C259.147 89.3708 259.749 89.6588 260.458 89.6588C261.168 89.6588 261.791 89.3762 262.325 88.8056C262.858 88.2404 263.125 87.5098 263.125 86.6193C263.125 85.7288 262.863 84.9876 262.346 84.385C261.829 83.7825 261.205 83.4839 260.48 83.4839C259.755 83.4839 259.141 83.7825 258.645 84.3744C258.144 84.9716 257.899 85.7128 257.899 86.6086V86.614Z" fill="#14303B"/>
<path d="M278.525 86.6033C278.525 88.203 277.97 89.5521 276.866 90.6452C275.757 91.7384 274.365 92.2876 272.691 92.2876C271.017 92.2876 269.625 91.7437 268.516 90.6452C267.407 89.5521 266.857 88.203 266.857 86.6033C266.857 85.0036 267.412 83.6545 268.516 82.5507C269.625 81.4522 271.017 80.8976 272.691 80.8976C274.365 80.8976 275.757 81.4469 276.866 82.5507C277.975 83.6492 278.525 85.0036 278.525 86.6033ZM269.956 86.6033C269.956 87.5045 270.211 88.2404 270.723 88.8056C271.235 89.3708 271.891 89.6588 272.691 89.6588C273.491 89.6588 274.147 89.3762 274.659 88.8056C275.171 88.2404 275.427 87.5045 275.427 86.6033C275.427 85.7021 275.171 84.9609 274.659 84.3904C274.147 83.8145 273.491 83.5318 272.691 83.5318C271.891 83.5318 271.235 83.8198 270.723 84.3904C270.211 84.9663 269.956 85.7021 269.956 86.6033Z" fill="#14303B"/>
<path d="M282.764 85.9688V92.1223H279.688V81.0896H282.764V82.3214C283.692 81.3776 284.737 80.9083 285.9 80.9083C287.062 80.9083 288.038 81.3189 288.822 82.1401C289.606 82.9613 290 84.0544 290 85.4195V92.1277H286.924V85.8941C286.924 84.1984 286.3 83.3506 285.057 83.3506C284.444 83.3506 283.905 83.5745 283.447 84.0171C282.988 84.4597 282.759 85.1156 282.759 85.9741L282.764 85.9688Z" fill="#14303B"/>
<path d="M259.232 38.0626V40.2169H267.007V46.6744H259.232V71.598H250.205V46.6744H245.011C244.931 45.7466 244.765 44.6267 244.419 43.3896C244.067 42.1259 243.619 41.0594 243.203 40.2169H250.205V38.2439C250.205 34.7352 251.271 31.957 253.404 29.904C255.537 27.851 258.187 26.8219 261.355 26.8219C264.522 26.8219 267.401 28.0164 269.993 30.4106L266.762 36.4522C265.445 34.9378 263.989 34.1806 262.394 34.1806C261.477 34.1806 260.72 34.5112 260.123 35.1671C259.526 35.823 259.227 36.7935 259.227 38.0679L259.232 38.0626Z" fill="#14303B"/>
<path d="M279.234 38.0626V40.2169H287.009V46.6744H279.234V71.598H270.207V46.6744H262.971V40.2169H270.207V38.2439C270.207 34.7352 271.273 31.957 273.406 29.904C275.539 27.8511 278.189 26.8219 281.357 26.8219C284.524 26.8219 287.404 28.0164 290.001 30.4106L286.769 36.4522C285.452 34.9378 283.996 34.1806 282.402 34.1806C281.485 34.1806 280.728 34.5112 280.13 35.1671C279.533 35.823 279.234 36.7935 279.234 38.0679V38.0626Z" fill="#14303B"/>
</svg>
