<svg width="54" height="48" viewBox="0 0 54 48" fill="none" xmlns="http://www.w3.org/2000/svg">
<path d="M1.56082 37.6347H42.4127C42.7791 37.6347 43.1333 37.5065 43.4141 37.2728C43.8065 36.9442 52.7571 29.2444 53.3029 12.6233H9.42877C8.88509 27.7108 0.641963 34.8023 0.556299 34.8731C0.0540915 35.2975 -0.13068 35.9906 0.095256 36.6073C0.319629 37.2225 0.904374 37.6347 1.56082 37.6347Z" fill="#7FA842"/>
<path d="M51.7919 3.24404H43.9758V1.68083C43.9758 0.805427 43.288 0.117615 42.4126 0.117615C41.5372 0.117615 40.8494 0.805427 40.8494 1.68083V3.24404H32.9291V1.68083C32.9291 0.805427 32.2413 0.117615 31.3659 0.117615C30.4905 0.117615 29.8027 0.805427 29.8027 1.68083V3.24404H21.9866V1.68083C21.9866 0.805427 21.2988 0.117615 20.4234 0.117615C19.548 0.117615 18.8602 0.805427 18.8602 1.68083V3.24404H11.0442C10.1688 3.24404 9.48096 3.93185 9.48096 4.80725V9.49688H53.3551V4.80725C53.3551 3.93185 52.6673 3.24404 51.7919 3.24404Z" fill="#7FA842"/>
<path d="M45.4215 39.6697C44.5726 40.3764 43.5072 40.7612 42.4126 40.7612H9.48096V45.4508C9.48096 46.3149 10.1801 47.014 11.0442 47.014H51.7919C52.6559 47.014 53.3551 46.3149 53.3551 45.4508V27.9276C50.3412 35.3217 46.1355 39.072 45.4215 39.6697Z" fill="#14303B"/>
</svg>
