<svg width="58" height="48" viewBox="0 0 58 48" fill="none" xmlns="http://www.w3.org/2000/svg">
<path d="M55.302 18.2511H43.8993C42.6321 18.2511 41.6006 19.2825 41.6006 20.5498V44.7526C41.6006 46.0198 42.6321 47.0513 43.8982 47.0513H55.3009C56.5692 47.0513 57.6007 46.0198 57.6007 44.7526V20.5498C57.6007 19.2825 56.5692 18.2511 55.302 18.2511ZM51.2006 43.8512H48.0006C47.4108 43.8512 46.934 43.3734 46.934 42.7846C46.934 42.1958 47.4108 41.7179 48.0006 41.7179H51.2006C51.7905 41.7179 52.2673 42.1958 52.2673 42.7846C52.2673 43.3734 51.7905 43.8512 51.2006 43.8512Z" fill="#14303B"/>
<path d="M52.267 16.1177V4.1486C52.267 3.08726 51.8371 2.04939 51.0862 1.29952C50.3246 0.536848 49.3113 0.117645 48.235 0.117645H4.03096C1.80801 0.117645 0 1.92566 0 4.1486V30.2202C0 31.2816 0.429869 32.3205 1.17974 33.0693C1.93175 33.8213 2.96962 34.2512 4.03096 34.2512H39.4669V20.5498C39.4669 18.106 41.4541 16.1177 43.8979 16.1177H52.267ZM27.7335 30.4677H24.5335C23.9447 30.4677 23.4668 29.9898 23.4668 29.401C23.4668 28.8122 23.9447 28.3344 24.5335 28.3344H27.7335C28.3223 28.3344 28.8002 28.8122 28.8002 29.401C28.8002 29.9898 28.3223 30.4677 27.7335 30.4677Z" fill="#7FA842"/>
<path d="M37.3335 44.9179H33.0668V36.3846H19.2001V44.9179H14.9334C14.3446 44.9179 13.8667 45.3958 13.8667 45.9846C13.8667 46.5734 14.3446 47.0513 14.9334 47.0513H19.2001H33.0668H37.3335C37.9234 47.0513 38.4002 46.5734 38.4002 45.9846C38.4002 45.3958 37.9234 44.9179 37.3335 44.9179Z" fill="#7FA842"/>
</svg>
