<svg width="56" height="51" viewBox="0 0 56 51" fill="none" xmlns="http://www.w3.org/2000/svg">
<path fill-rule="evenodd" clip-rule="evenodd" d="M25.514 26.1442V3.63833C25.514 3.14617 25.114 2.74399 24.6197 2.74399C18.0558 2.74399 12.113 5.40532 7.81046 9.70682C5.72366 11.7936 4.02171 14.2696 2.82275 17.0144C4.31332 16.0897 6.07056 15.5553 7.95463 15.5553C10.6463 15.5553 13.0833 16.6458 14.847 18.4096C16.6108 20.1733 17.7013 22.6102 17.7013 25.3019C17.7013 27.9936 16.6108 30.4306 14.847 32.1943C14.4567 32.5813 14.0361 32.938 13.5841 33.2577H14.266C15.2123 33.2577 16.0698 33.6448 16.6931 34.2659C17.3143 34.8871 17.7013 35.7467 17.7013 36.6931C17.7013 37.6362 17.3143 38.4969 16.6931 39.1181C16.653 39.1582 16.6129 39.1951 16.5728 39.2319C16.6129 39.2688 16.653 39.3057 16.6931 39.3458C17.3143 39.9669 17.7013 40.8266 17.7013 41.7708C17.7013 42.7171 17.3143 43.5779 16.6931 44.198C16.653 44.2381 16.6129 44.2749 16.5728 44.3118C16.6129 44.3486 16.653 44.3855 16.6931 44.4256C17.3143 45.0468 17.7013 45.9032 17.7013 46.8506C17.7013 47.6712 17.4097 48.4236 16.9305 49.0144C19.3425 49.8383 21.9269 50.287 24.6186 50.287C27.8328 50.287 30.9028 49.6453 33.7051 48.4832C36.6212 47.2788 39.2392 45.5118 41.4268 43.3242C41.7737 42.9741 41.7737 42.4082 41.4268 42.058L25.514 26.1442Z" fill="#7FA842"/>
<path fill-rule="evenodd" clip-rule="evenodd" d="M54.609 26.993H31.7346C31.5037 26.993 31.2771 27.0819 31.1015 27.2543C30.7513 27.6044 30.7513 28.1735 31.1015 28.5204L47.2765 44.6955C47.6234 45.0457 48.1926 45.0457 48.5395 44.6955C50.7271 42.5079 52.4941 39.8899 53.7017 36.976C54.8638 34.1705 55.5023 31.1005 55.5023 27.8863C55.5034 27.3919 55.1034 26.993 54.609 26.993Z" fill="#14303B"/>
<path fill-rule="evenodd" clip-rule="evenodd" d="M28.6793 24.7252H51.5538C52.0481 24.7252 52.4481 24.3252 52.4481 23.8309C52.4481 17.267 49.7868 11.3242 45.4886 7.02164C41.186 2.71906 35.2432 0.0588074 28.6793 0.0588074C28.185 0.0588074 27.7817 0.460989 27.7817 0.956398V23.8309C27.7817 24.3252 28.185 24.7252 28.6793 24.7252Z" fill="#14303B"/>
<path fill-rule="evenodd" clip-rule="evenodd" d="M15.4292 45.6885C15.1279 45.3904 14.7192 45.2061 14.2682 45.2061H1.6445C1.19245 45.2061 0.780514 45.3904 0.482401 45.6885C0.184288 45.9888 0 46.3975 0 46.8496C0 47.3016 0.184288 47.7135 0.482401 48.0106C0.780514 48.3087 1.19245 48.493 1.6445 48.493H14.2682C14.5566 48.493 14.8276 48.4193 15.0639 48.2838C15.1994 48.21 15.3219 48.1179 15.4292 48.0106C15.7274 47.7125 15.9116 47.3005 15.9116 46.8496C15.9116 46.8008 15.9084 46.7477 15.9051 46.6989C15.8683 46.3086 15.6938 45.9552 15.4292 45.6885Z" fill="#7FA842"/>
<path fill-rule="evenodd" clip-rule="evenodd" d="M14.2682 40.1263H1.6445C1.19245 40.1263 0.780514 40.3138 0.482401 40.6119C0.184288 40.91 0 41.3209 0 41.7697C0 42.2217 0.184288 42.6337 0.482401 42.9307C0.780514 43.2288 1.19245 43.4131 1.6445 43.4131H14.2682C14.7203 43.4131 15.129 43.2288 15.4292 42.9307C15.7274 42.6326 15.9116 42.2207 15.9116 41.7697C15.9116 41.3209 15.7274 40.909 15.4292 40.6109C15.1279 40.3138 14.7192 40.1263 14.2682 40.1263Z" fill="#7FA842"/>
<path fill-rule="evenodd" clip-rule="evenodd" d="M14.2682 35.0497H1.6445C1.19245 35.0497 0.780514 35.234 0.482401 35.5321C0.184288 35.8302 0 36.2421 0 36.6931C0 37.1419 0.184288 37.5538 0.482401 37.8519C0.780514 38.1501 1.19245 38.3376 1.6445 38.3376H14.2682C14.7203 38.3376 15.129 38.1501 15.4292 37.8519C15.7274 37.5538 15.9116 37.1419 15.9116 36.6931C15.9116 36.2411 15.7274 35.8291 15.4292 35.5321C15.1311 35.234 14.7192 35.0497 14.2682 35.0497Z" fill="#7FA842"/>
<path fill-rule="evenodd" clip-rule="evenodd" d="M7.95582 33.2578C12.3505 33.2578 15.9116 29.6967 15.9116 25.302C15.9116 20.9072 12.3505 17.3461 7.95582 17.3461C5.45709 17.3461 3.12856 18.5071 1.62282 20.4866C0.60273 21.8243 0 23.4927 0 25.302C0 29.6902 3.55567 33.2578 7.95582 33.2578ZM5.26739 26.3047C5.72268 26.1139 6.24736 26.3329 6.4349 26.7871C6.4967 26.9345 6.57041 27.0733 6.64955 27.1958C6.92923 27.6229 7.30756 27.8722 7.69457 27.9763C8.08808 28.0804 8.49026 28.05 8.81872 27.9113C8.89244 27.8809 8.9629 27.844 9.0312 27.7974C9.08974 27.7606 9.13852 27.7205 9.18188 27.6771C9.30221 27.5513 9.38134 27.3974 9.40302 27.2413C9.42145 27.1004 9.3911 26.9497 9.30113 26.8109C9.26752 26.7589 9.23066 26.7123 9.18405 26.67C9.01494 26.5042 8.56289 26.3968 8.08699 26.283C7.26962 26.0922 6.40021 25.8863 5.7151 25.1827C5.46035 24.9182 5.27281 24.6049 5.15898 24.2667C5.0083 23.8244 4.9812 23.3387 5.08201 22.8748C5.18391 22.4075 5.42024 21.9555 5.79532 21.5902C6.06308 21.3289 6.40021 21.1143 6.8089 20.9755C6.88912 20.9484 6.97151 20.9235 7.0604 20.9018V20.0964C7.0604 19.6042 7.46041 19.202 7.95474 19.202C8.44906 19.202 8.84908 19.6042 8.84908 20.0964V20.8649C9.00301 20.8986 9.15044 20.9419 9.29462 20.9972C10.0567 21.2769 10.6985 21.8265 10.9912 22.6872C11.0161 22.7577 11.0378 22.8347 11.0584 22.9181C11.1754 23.3973 10.8827 23.8829 10.4036 24C9.92445 24.1171 9.44205 23.8244 9.32172 23.3452C9.31522 23.3203 9.3098 23.2932 9.29679 23.2618C9.19814 22.9734 8.96507 22.7794 8.67888 22.6753C8.32223 22.5431 7.90487 22.5344 7.52979 22.6265C7.48318 22.6384 7.4344 22.6515 7.38236 22.6699C7.23818 22.7187 7.12111 22.7902 7.03872 22.8726C6.92815 22.9767 6.86093 23.1122 6.8295 23.2542C6.79589 23.4049 6.80456 23.5588 6.85118 23.6965C6.88153 23.7886 6.9314 23.8721 6.9921 23.9393C7.3119 24.2645 7.92005 24.4098 8.49134 24.5442C9.21657 24.7133 9.89843 24.8759 10.4307 25.3898C10.5749 25.5339 10.6985 25.6814 10.796 25.8321C11.1342 26.3481 11.2448 26.9259 11.1711 27.4787C11.0974 28.0164 10.8459 28.527 10.4578 28.9227C10.319 29.0636 10.1694 29.1904 10.009 29.2945C9.85182 29.3964 9.68379 29.4853 9.50167 29.5623C9.2957 29.6479 9.07456 29.7162 8.84691 29.7585V30.5054C8.84691 30.9997 8.4469 31.403 7.95257 31.403C7.45824 31.403 7.05823 31.0008 7.05823 30.5054V29.6512C6.33626 29.4181 5.65439 28.9411 5.15031 28.1736C5.0148 27.9644 4.88905 27.7313 4.78173 27.4733C4.59744 27.0169 4.81209 26.4944 5.26739 26.3047Z" fill="#7FA842"/>
</svg>
