<svg width="57" height="53" viewBox="0 0 57 53" fill="none" xmlns="http://www.w3.org/2000/svg">
<g clip-path="url(#clip0_282_547)">
<path fill-rule="evenodd" clip-rule="evenodd" d="M45.3374 0.010634L56.9276 5.13269C56.9539 5.14413 56.9752 5.16478 56.9877 5.19084C57.0002 5.21691 57.003 5.24667 56.9957 5.27467L55.0103 12.9007C55.0041 12.9265 54.9895 12.9495 54.9688 12.9659C54.9481 12.9823 54.9226 12.9911 54.8964 12.9909H48.897C48.8654 12.9909 48.8351 13.0037 48.8127 13.0263C48.7904 13.0489 48.7778 13.0797 48.7778 13.1117V27.817C48.7783 27.8352 48.7745 27.8532 48.7668 27.8696C48.7591 27.886 48.7476 27.9003 48.7333 27.9112L47.2115 29.1373C46.9434 29.3637 46.6334 29.5337 46.2997 29.6374C45.966 29.7411 45.6153 29.7763 45.268 29.7411L42.3161 29.5062C41.3969 29.4234 40.4716 29.5692 39.6205 29.9308C38.7695 30.2925 38.0184 30.8591 37.4325 31.5816L36.3848 32.8449C36.3708 32.8627 36.3519 32.876 36.3305 32.8831C36.3091 32.8901 36.2861 32.8907 36.2644 32.8847C36.2424 32.8794 36.2225 32.8679 36.2069 32.8514C36.1913 32.8349 36.1808 32.8142 36.1766 32.7918L32.7965 15.2189C32.7918 15.1966 32.7936 15.1735 32.8018 15.1522C32.8099 15.131 32.824 15.1127 32.8423 15.0995C32.8606 15.0846 32.883 15.0757 32.9064 15.0741C32.9298 15.0724 32.9531 15.078 32.9733 15.0902L35.2127 16.2685C35.2351 16.2803 35.2606 16.2846 35.2856 16.2808C35.3105 16.277 35.3336 16.2653 35.3515 16.2473L41.3051 10.2919C41.3264 10.2694 41.3383 10.2395 41.3383 10.2083C41.3383 10.1771 41.3264 10.1472 41.3051 10.1247L33.5416 1.63218C33.5288 1.61786 33.5195 1.60065 33.5144 1.58196C33.5094 1.56327 33.5089 1.54364 33.5128 1.52469C33.5166 1.50584 33.5249 1.48822 33.537 1.47341C33.5491 1.45859 33.5647 1.44703 33.5822 1.43977L36.8065 0.0146147C36.822 0.00678947 36.839 0.00271606 36.8563 0.00271606C36.8736 0.00271606 36.8906 0.00678947 36.9061 0.0146147C36.9217 0.0219895 36.9355 0.0328687 36.9464 0.046431C36.9573 0.0599932 36.965 0.0758847 36.9689 0.0929057C37.1966 1.02231 37.7248 1.8477 38.4694 2.43743C39.2141 3.02715 40.1321 3.34723 41.0772 3.3466C42.0211 3.34656 42.9379 3.02664 43.6816 2.43777C44.4254 1.84889 44.9533 1.02489 45.1816 0.0968864C45.1855 0.0798654 45.1932 0.0639739 45.2041 0.0504117C45.215 0.0368495 45.2288 0.0259702 45.2444 0.0185954C45.2599 0.0107702 45.2769 0.00669677 45.2942 0.00669677C45.3115 0.00669677 45.3285 0.0107702 45.344 0.0185954L45.3374 0.010634Z" fill="#7FA842"/>
<path fill-rule="evenodd" clip-rule="evenodd" d="M55.2215 28.2721C55.2219 28.245 55.2129 28.2185 55.1962 28.1972C55.1795 28.1759 55.1561 28.1612 55.1299 28.1554L52.2487 27.4507C52.2311 27.446 52.2127 27.4455 52.1949 27.4495C52.1771 27.4534 52.1606 27.4616 52.1465 27.4733L48.3225 30.5492C47.4256 31.293 46.2756 31.6487 45.1217 31.5391L42.1698 31.3042C41.534 31.2439 40.8932 31.3433 40.3043 31.5938C39.7154 31.8442 39.1965 32.2379 38.7936 32.74L27.9159 45.8888H27.9094C25.8912 47.992 23.365 49.1677 20.2049 49.1399C20.0385 49.1399 19.8761 49.1399 19.7203 49.1558C19.4274 49.1803 19.1491 49.2958 18.9234 49.4865C18.6976 49.6772 18.5355 49.9339 18.4592 50.2215C18.3828 50.5091 18.3959 50.8135 18.4967 51.0932C18.5975 51.373 18.781 51.6144 19.0223 51.7845C20.121 52.5581 21.2133 52.9907 22.5399 52.9907H31.5527C33.7791 52.9987 35.8143 52.1693 37.653 50.5504L47.8877 41.0322C48.5975 40.3687 49.8521 40.5478 50.0656 41.9677L51.6751 52.9018C51.6795 52.9303 51.6937 52.9562 51.7154 52.975C51.737 52.9937 51.7645 53.004 51.793 53.004H55.1037C55.1353 53.004 55.1656 52.9912 55.1879 52.9686C55.2103 52.9459 55.2229 52.9152 55.2229 52.8832V28.2721H55.2215Z" fill="#14303B"/>
<path fill-rule="evenodd" clip-rule="evenodd" d="M25.9053 37.5502C25.8206 36.9585 25.5277 36.4177 25.0806 36.0275C24.6334 35.6374 24.0621 35.4241 23.472 35.4271H21.8821C21.8523 35.4269 21.8236 35.4153 21.8018 35.3946C21.7799 35.374 21.7666 35.3458 21.7643 35.3156C21.6045 33.3929 20.9497 31.6599 19.9714 30.3488C17.4137 26.92 13.1443 26.92 10.5866 30.3488C9.60834 31.6599 8.95222 33.3929 8.79376 35.3156C8.79144 35.346 8.77787 35.3744 8.75577 35.3951C8.73366 35.4158 8.70466 35.4272 8.67458 35.4271H7.0847C6.49467 35.4244 5.92353 35.6377 5.47642 36.0279C5.02932 36.418 4.73634 36.9586 4.65142 37.5502L2.37529 52.862C2.37281 52.8792 2.37398 52.8967 2.37872 52.9134C2.38347 52.9301 2.39167 52.9456 2.4028 52.9589C2.41407 52.9719 2.42797 52.9823 2.44356 52.9894C2.45916 52.9965 2.47607 53.0001 2.49316 53H17.3731C17.3962 53.0003 17.4188 52.9937 17.4382 52.9809C17.4575 52.9681 17.4727 52.9498 17.4818 52.9283C17.4919 52.9066 17.4951 52.8822 17.4911 52.8585C17.4872 52.8348 17.4761 52.8128 17.4595 52.7956C17.095 52.3928 16.8373 51.9029 16.7104 51.3717C16.5835 50.8405 16.5917 50.2854 16.734 49.7582C16.9034 49.1096 17.2677 48.5303 17.7764 48.1007C18.2851 47.6711 18.913 47.4124 19.5733 47.3604C19.788 47.3432 20.0041 47.3379 20.2189 47.3392C22.7439 47.3631 24.8275 46.4913 26.585 44.6853V44.6773L26.8665 44.3376C26.8775 44.3246 26.8855 44.3093 26.89 44.2928C26.8945 44.2763 26.8955 44.259 26.8927 44.2421L25.9053 37.5502ZM19.9413 35.3873C19.9304 35.4 19.9169 35.4102 19.9017 35.417C19.8866 35.4239 19.8701 35.4273 19.8535 35.4271H10.7045C10.6879 35.4275 10.6713 35.4242 10.6562 35.4173C10.641 35.4104 10.6275 35.4002 10.6168 35.3873C10.6052 35.3751 10.5965 35.3604 10.5912 35.3443C10.586 35.3282 10.5844 35.3112 10.5866 35.2944C10.7385 33.7896 11.2532 32.4481 12.0076 31.4369C13.8476 28.9701 16.7104 28.9701 18.5557 31.4369C19.3087 32.4481 19.8247 33.7896 19.9766 35.2944C19.9781 35.3116 19.9757 35.3289 19.9696 35.345C19.9635 35.3611 19.9538 35.3756 19.9413 35.3873Z" fill="#14303B"/>
<path fill-rule="evenodd" clip-rule="evenodd" d="M19.8442 6.93864L16.8491 0.444512C16.8399 0.423461 16.8249 0.40559 16.8058 0.393095C16.7867 0.3806 16.7644 0.374027 16.7417 0.374184H9.98931C9.97366 0.374002 9.95815 0.37709 9.94372 0.383255C9.9293 0.389419 9.91629 0.398527 9.9055 0.410012L0.0335626 10.333C0.0114382 10.3561 -0.000792094 10.3871 -0.000480836 10.4193C-0.000659761 10.4351 0.00238802 10.4508 0.00847166 10.4654C0.0145553 10.4801 0.0235389 10.4932 0.0348735 10.5042L3.83278 14.3006C3.85132 14.319 3.8753 14.3308 3.90107 14.3342C3.92684 14.3375 3.95299 14.3323 3.97553 14.3192L9.39867 11.2061C9.41818 11.1933 9.44092 11.1865 9.46415 11.1865C9.48739 11.1865 9.51013 11.1933 9.52964 11.2061C9.54806 11.2188 9.56254 11.2365 9.57136 11.2572C9.58018 11.2778 9.58297 11.3007 9.5794 11.3229L6.34071 33.5229C6.33797 33.5417 6.33962 33.5608 6.34554 33.5788C6.35145 33.5968 6.36147 33.6131 6.37476 33.6264C6.38752 33.64 6.40343 33.6501 6.42103 33.6559C6.43864 33.6617 6.45739 33.663 6.4756 33.6596C6.7003 33.6276 6.92708 33.6129 7.15398 33.6158C7.18099 33.6161 7.20725 33.6068 7.22827 33.5896C7.24929 33.5724 7.26377 33.5484 7.26923 33.5216C7.59379 31.9778 8.24232 30.5228 9.1708 29.2554C12.4449 24.8685 18.1299 24.8685 21.4014 29.2554C22.3301 30.5222 22.9787 31.9768 23.3029 33.5203C23.3084 33.5474 23.323 33.5718 23.3443 33.5892C23.3656 33.6067 23.3921 33.616 23.4195 33.6158H23.4797C24.4966 33.613 25.4805 33.9813 26.2513 34.6534C27.0221 35.3255 27.5282 36.2563 27.6771 37.2755L28.4052 42.1773C28.4083 42.2004 28.418 42.222 28.4332 42.2394C28.4483 42.2569 28.4682 42.2695 28.4904 42.2755C28.5125 42.2822 28.5361 42.2821 28.5583 42.2752C28.5804 42.2684 28.6 42.2551 28.6148 42.237L34.7176 34.8605C34.7292 34.8468 34.7376 34.8306 34.7419 34.8131C34.7462 34.7955 34.7464 34.7772 34.7425 34.7596L30.3382 11.8895C30.3335 11.8673 30.3354 11.8441 30.3435 11.8229C30.3517 11.8016 30.3658 11.7833 30.3841 11.7701C30.4024 11.7554 30.4246 11.7465 30.448 11.7446C30.4713 11.7427 30.4946 11.7479 30.515 11.7595L34.8826 14.0578C34.9046 14.0701 34.9301 14.0747 34.9549 14.0709C34.9798 14.067 35.0027 14.055 35.0201 14.0365L38.818 10.2361C38.8394 10.2134 38.8513 10.1832 38.8513 10.1519C38.8513 10.1205 38.8394 10.0903 38.818 10.0676L29.9964 0.412665C29.9855 0.400432 29.9722 0.390678 29.9573 0.384045C29.9424 0.377413 29.9263 0.374051 29.91 0.374184H23.1602C23.1375 0.374027 23.1152 0.3806 23.0961 0.393095C23.077 0.40559 23.062 0.423461 23.0528 0.444512L20.0577 6.93864C20.0481 6.9597 20.0328 6.97752 20.0135 6.98999C19.9943 7.00246 19.9719 7.00905 19.949 7.00897C19.9263 7.00896 19.9041 7.00232 19.8851 6.98984C19.866 6.97737 19.8509 6.95959 19.8416 6.93864H19.8442Z" fill="#7FA842"/>
</g>
<defs>
<clipPath id="clip0_282_547">
<rect width="57" height="53" fill="white"/>
</clipPath>
</defs>
</svg>
