<svg width="46" height="47" viewBox="0 0 46 47" fill="none" xmlns="http://www.w3.org/2000/svg">
<g clip-path="url(#clip0_282_555)">
<path fill-rule="evenodd" clip-rule="evenodd" d="M12.8757 23.5322H2.15965C1.58771 23.5312 1.03948 23.301 0.635058 22.892C0.230632 22.4831 0.002974 21.9287 0.00195312 21.3503V2.18191C0.002974 1.60356 0.230632 1.04918 0.635058 0.640223C1.03948 0.231262 1.58771 0.00105458 2.15965 2.2255e-05H32.6416C32.9449 -0.00456066 33.2455 0.0576875 33.5226 0.182441C33.7997 0.307195 34.0466 0.491462 34.2461 0.722438L37.3934 4.25935L28.5116 4.96322C27.9929 4.99975 27.488 5.14843 27.031 5.3992C26.5739 5.64997 26.1755 5.99699 25.8625 6.41683L12.8757 23.5322Z" fill="#7FA842"/>
<path d="M7.64243 9.73504C8.74718 9.73504 9.64276 8.82942 9.64276 7.71228C9.64276 6.59514 8.74718 5.68951 7.64243 5.68951C6.53767 5.68951 5.64209 6.59514 5.64209 7.71228C5.64209 8.82942 6.53767 9.73504 7.64243 9.73504Z" fill="white"/>
<path fill-rule="evenodd" clip-rule="evenodd" d="M14.5796 5.42985L6.15541 17.2882C6.03706 17.4559 5.98903 17.6641 6.02175 17.8674C6.05448 18.0707 6.16532 18.2527 6.33014 18.3738C6.49603 18.4938 6.70211 18.5425 6.90341 18.5094C7.10472 18.4763 7.2849 18.364 7.40464 18.1971L15.8288 6.3397C15.9475 6.17196 15.9957 5.96357 15.963 5.76C15.9302 5.55644 15.8192 5.37424 15.6541 5.25315C15.4882 5.13317 15.2821 5.08442 15.0808 5.11752C14.8795 5.15063 14.6993 5.2629 14.5796 5.42985Z" fill="white"/>
<path fill-rule="evenodd" clip-rule="evenodd" d="M14.3353 13.7972C13.8048 13.7972 13.296 14.0103 12.9208 14.3896C12.5457 14.769 12.335 15.2835 12.335 15.8199C12.335 16.3564 12.5457 16.8709 12.9208 17.2503C13.296 17.6296 13.8048 17.8427 14.3353 17.8427C14.8658 17.8427 15.3746 17.6296 15.7497 17.2503C16.1249 16.8709 16.3356 16.3564 16.3356 15.8199C16.3356 15.2835 16.1249 14.769 15.7497 14.3896C15.3746 14.0103 14.8658 13.7972 14.3353 13.7972Z" fill="white"/>
<path fill-rule="evenodd" clip-rule="evenodd" d="M45.5501 21.691C45.7382 21.4505 45.8723 21.1714 45.943 20.8732C46.0137 20.5749 46.0193 20.2647 45.9594 19.9641L44.0836 9.77508C43.8432 8.4679 43.4358 7.33448 42.3922 6.52128C41.3486 5.70807 40.1573 5.60752 38.8453 5.711L28.6283 6.5203C28.3254 6.53949 28.0303 6.62524 27.7635 6.77159C27.4967 6.91794 27.2647 7.12136 27.0837 7.36768L8.53228 31.8234C8.18482 32.2831 8.03169 32.8633 8.10642 33.437C8.18116 34.0106 8.47766 34.5309 8.931 34.8839L23.9702 46.5509C24.4247 46.902 24.9983 47.0567 25.5653 46.9811C26.1324 46.9055 26.6467 46.6059 26.9958 46.1478L45.5501 21.691Z" fill="#7FA842"/>
<path fill-rule="evenodd" clip-rule="evenodd" d="M36.5826 10.8479C36.4221 11.0593 36.3045 11.3006 36.2363 11.558C36.1681 11.8154 36.1507 12.0838 36.1852 12.348C36.2196 12.6121 36.3051 12.8669 36.4369 13.0976C36.5687 13.3283 36.7442 13.5306 36.9533 13.6927C37.1623 13.8549 37.4009 13.9739 37.6555 14.0428C37.91 14.1118 38.1754 14.1294 38.4367 14.0946C38.6979 14.0597 38.9498 13.9732 39.178 13.84C39.4062 13.7067 39.6062 13.5293 39.7665 13.3178C40.09 12.8907 40.2326 12.3513 40.1631 11.8179C40.0936 11.2845 39.8176 10.8009 39.3958 10.4731C38.9734 10.146 38.4399 10.0017 37.9125 10.072C37.385 10.1423 36.9067 10.4214 36.5826 10.8479Z" fill="white"/>
<path fill-rule="evenodd" clip-rule="evenodd" d="M37.4221 18.7135L35.3812 21.404L29.3233 16.7054C29.1607 16.5807 28.956 16.5261 28.7537 16.5535C28.5515 16.5809 28.3682 16.6882 28.2439 16.8518C28.1203 17.0163 28.0661 17.2235 28.0933 17.4283C28.1204 17.633 28.2267 17.8185 28.3888 17.9442L35.0569 23.1183C35.2194 23.243 35.4242 23.2976 35.6264 23.2702C35.8286 23.2427 36.0119 23.1355 36.1362 22.9719L38.6463 19.6614C38.7696 19.4971 38.8236 19.29 38.7965 19.0855C38.7693 18.881 38.6633 18.6957 38.5015 18.57C38.3388 18.445 38.1339 18.3902 37.9314 18.4176C37.7289 18.4451 37.5455 18.5525 37.4212 18.7164L37.4221 18.7135Z" fill="white"/>
<path fill-rule="evenodd" clip-rule="evenodd" d="M31.399 28.4632L30.1951 26.706L31.7977 24.5924L33.7865 25.3129C33.9793 25.3824 34.1915 25.3717 34.3765 25.2831C34.5615 25.1945 34.7042 25.0353 34.7731 24.8404C34.8419 24.6454 34.8313 24.4308 34.7437 24.2437C34.6561 24.0566 34.4986 23.9124 34.3059 23.8427L25.9966 20.8339C25.881 20.7932 25.7576 20.7808 25.6364 20.7978C25.5152 20.8147 25.3998 20.8606 25.2995 20.9315C25.1326 21.0497 25.0186 21.2298 24.9825 21.4326C24.9463 21.6354 24.9909 21.8444 25.1064 22.0142L30.1314 29.3477C30.2483 29.5164 30.4264 29.6317 30.627 29.6683C30.8275 29.7048 31.0342 29.6598 31.2021 29.5429C31.369 29.4247 31.4829 29.2446 31.5191 29.0418C31.5553 28.839 31.5107 28.63 31.3951 28.4603L31.399 28.4632Z" fill="white"/>
<path fill-rule="evenodd" clip-rule="evenodd" d="M27.7402 23.1251L29.2743 25.3627L30.2744 24.0438L27.7402 23.1251Z" fill="#7FA842"/>
<path fill-rule="evenodd" clip-rule="evenodd" d="M28.6677 30.2575C28.792 30.0936 28.9755 29.9862 29.178 29.9587C29.3804 29.9313 29.5854 29.9861 29.748 30.1111C29.9097 30.2369 30.0156 30.4223 30.0425 30.6268C30.0695 30.8313 30.0153 31.0383 29.8919 31.2025L27.3818 34.5129C27.2575 34.6769 27.074 34.7843 26.8715 34.8117C26.6691 34.8392 26.4641 34.7844 26.3015 34.6594L19.6334 29.4853C19.4713 29.3596 19.365 29.1741 19.3379 28.9694C19.3108 28.7646 19.3649 28.5573 19.4886 28.3929L21.9986 25.0825C22.123 24.9186 22.3064 24.8111 22.5089 24.7837C22.7114 24.7562 22.9163 24.811 23.0789 24.9361C23.2412 25.0616 23.3476 25.2471 23.375 25.4518C23.4023 25.6566 23.3483 25.8639 23.2247 26.0285L21.1819 28.7219L23.2933 30.3591L24.6014 28.634C24.7257 28.4701 24.9092 28.3627 25.1116 28.3352C25.3141 28.3078 25.5191 28.3626 25.6817 28.4876C25.8438 28.6133 25.95 28.7988 25.9772 29.0036C26.0043 29.2083 25.9501 29.4156 25.8265 29.58L24.5155 31.308L26.6268 32.9451L28.6677 30.2575Z" fill="white"/>
<path fill-rule="evenodd" clip-rule="evenodd" d="M15.3146 33.9008L16.5696 32.2461C16.7961 31.9473 17.0788 31.6968 17.4014 31.5088C17.7239 31.3208 18.0801 31.1991 18.4493 31.1508C18.8175 31.1007 19.1919 31.1247 19.5509 31.2214C19.9099 31.3181 20.2465 31.4855 20.5413 31.7141L23.9357 34.3499C24.2311 34.5793 24.4788 34.8653 24.6647 35.1917C24.8505 35.518 24.9709 35.8782 25.0189 36.2516C25.0684 36.624 25.0446 37.0025 24.949 37.3656C24.8534 37.7286 24.6879 38.069 24.4619 38.3671L23.2068 40.0219C23.0825 40.1858 22.8991 40.2932 22.6966 40.3207C22.4941 40.3481 22.2892 40.2933 22.1265 40.1683L15.4584 34.9942C15.2962 34.8684 15.19 34.6826 15.163 34.4776C15.136 34.2726 15.1905 34.0652 15.3146 33.9008Z" fill="white"/>
<path fill-rule="evenodd" clip-rule="evenodd" d="M17.7946 33.1921C17.8977 33.0564 18.0262 32.9426 18.1728 32.8572C18.3194 32.7717 18.4812 32.7164 18.649 32.6942C18.8176 32.6714 18.9889 32.6824 19.1532 32.7266C19.3176 32.7709 19.4717 32.8474 19.6067 32.9519L23.0011 35.5878C23.1353 35.6919 23.2478 35.8218 23.3322 35.9701C23.4165 36.1184 23.471 36.2821 23.4925 36.4517C23.5153 36.6222 23.5045 36.7955 23.4607 36.9617C23.417 37.1279 23.3412 37.2837 23.2376 37.4202L22.4527 38.456L17.0078 34.2288L17.7946 33.1921Z" fill="#7FA842"/>
</g>
<defs>
<clipPath id="clip0_282_555">
<rect width="46" height="47" fill="white"/>
</clipPath>
</defs>
</svg>
